<svg id="drought_medium" data-name="drought medium" xmlns="http://www.w3.org/2000/svg" viewBox="0 0 19 25"><title>Drought Medium</title><g id="fill_-_medium" data-name="fill - medium"><path d="M18.4,15H4.3c-.71,1.05-1.1,2.62-.17,5.33A6.38,6.38,0,0,1,3,15H.59c0,.17-.07.33-.09.5-.66,4.93,4,9,9,9s9.68-4.08,9-9C18.47,15.33,18.43,15.17,18.4,15Z" style="fill:#15cdff"/></g><g id="outline"><path d="M9.48,3a26.24,26.24,0,0,0,4.34,6.31c1.8,2.12,3.36,3.94,3.69,6.31a6.22,6.22,0,0,1-1.58,5A8.74,8.74,0,0,1,9.5,23.5a8.62,8.62,0,0,1-6.4-2.88,6.25,6.25,0,0,1-1.61-5c.3-2.24,1.82-4.06,3.59-6.16A27.64,27.64,0,0,0,9.48,3m0-3C7.56,7.44,1.19,10.25.5,15.5c-.66,4.93,4,9,9,9s9.68-4.08,9-9C17.73,10,11.3,7.38,9.5,0Z" style="fill:#0da8cc"/></g></svg>