<svg id="drought_no" data-name="drought no" xmlns="http://www.w3.org/2000/svg" viewBox="0 0 19 25"><title>Drought No</title><g id="fill_-_no" data-name="fill - no"><path d="M18.5,15.5C17.73,10,11.3,7.38,9.5,0,7.56,7.44,1.19,10.25.5,15.5c-.66,4.93,4,9,9,9S19.18,20.42,18.5,15.5ZM4.13,20.33C.29,14.8,5.77,10.25,6.51,12S1.89,13.79,4.13,20.33Z" style="fill:#15cdff"/></g><g id="outline"><path d="M9.48,3a26.24,26.24,0,0,0,4.34,6.31c1.8,2.12,3.36,3.94,3.69,6.31a6.22,6.22,0,0,1-1.58,5A8.74,8.74,0,0,1,9.5,23.5a8.62,8.62,0,0,1-6.4-2.88,6.25,6.25,0,0,1-1.61-5c.3-2.24,1.82-4.06,3.59-6.16A27.64,27.64,0,0,0,9.48,3m0-3C7.56,7.44,1.19,10.25.5,15.5c-.66,4.93,4,9,9,9s9.68-4.08,9-9C17.73,10,11.3,7.38,9.5,0Z" style="fill:#0da8cc"/></g></svg>