<?xml version="1.0" encoding="UTF-8"?>
<svg width="20px" height="28px" viewBox="0 0 20 28" version="1.1" xmlns="http://www.w3.org/2000/svg" xmlns:xlink="http://www.w3.org/1999/xlink">
    <title>D694C893-6187-4478-A919-C1728C81E88C</title>
    <g id="Drought-Mild-ICON" stroke="none" fill="none" fill-rule="evenodd" stroke-width="1">
        <g transform="translate(0.5, 1.5)">
            <rect id="Rectangle" x="0" y="0" width="19" height="25"></rect>
            <path d="M3.7539,9.5 C2.1539,11.423 0.7979,13.233 0.4969,15.5 C-0.1551,20.428 4.5269,24.5 9.4969,24.5 C14.4679,24.5 19.1829,20.423 18.4969,15.5 C18.1739,13.18 16.8389,11.37 15.2709,9.5 L3.7539,9.5 Z" id="Fill" fill="#15CDFF"></path>
            <path d="M4.1309,20.335 C0.2859,14.799 5.7699,10.252 6.5089,12.013 C7.2769,13.842 1.8889,13.787 4.1309,20.335" id="Highlight" fill="#FFFFFF"></path>
            <path d="M9.4971,0 C11.3041,7.383 17.7321,10.004 18.4971,15.5 C19.1831,20.423 14.4681,24.5 9.4971,24.5 C4.5261,24.5 -0.1549,20.428 0.4971,15.5 C1.1931,10.246 7.5601,7.444 9.4971,0 Z M14.1498899,10.5003041 L4.87131158,10.5020407 L4.39052766,11.0873402 C4.15524607,11.3782395 3.96608611,11.6208964 3.78848447,11.8596561 L3.52564813,12.2215175 C2.63036744,13.4821966 2.13426268,14.5621379 1.98380899,15.6963651 C1.76988929,17.318666 2.29594946,18.9493802 3.47616837,20.2944965 C4.95887074,21.9867315 7.21263008,23 9.4971,23 C11.7630895,23 14.0903295,21.9501527 15.5527972,20.2699106 C16.7204109,18.9271549 17.2344453,17.3107249 17.011861,15.7068355 C16.7883324,14.0986524 16.164003,12.9579682 14.3791021,10.7782849 L14.1498899,10.5003041 Z M5.71183593,9.49864107 L13.305111,9.5 L12.3705568,8.38756018 C11.1277584,6.87720467 10.2106467,5.57058222 9.48226809,4.16188443 C8.80999203,5.46149053 7.98597836,6.67851436 6.90881362,8.03943573 L6.38719831,8.68636518 C6.19810172,8.91720391 6.00376417,9.15066308 5.71183593,9.49864107 Z" id="Outline" fill="#008CAC"></path>
        </g>
    </g>
</svg>