<?xml version="1.0" encoding="UTF-8"?>
<svg width="20px" height="28px" viewBox="0 0 20 28" version="1.1" xmlns="http://www.w3.org/2000/svg" xmlns:xlink="http://www.w3.org/1999/xlink">
    <title>FC1B416F-0482-4583-8D80-0A1213B29E44</title>
    <g id="Drought-Medium-ICON" stroke="none" fill="none" fill-rule="evenodd" stroke-width="1">
        <g transform="translate(0.5, 1.5)">
            <rect id="Rectangle" x="0" y="0" width="19" height="25"></rect>
            <path d="M0.5934,15 C0.5594,15.166 0.5194,15.329 0.4974,15.5 C-0.1556,20.428 4.5264,24.5 9.4974,24.5 C14.4674,24.5 19.1824,20.423 18.4974,15.5 C18.4734,15.329 18.4334,15.166 18.3984,15 L0.5934,15 Z" id="Fill" fill="#15CDFF"></path>
            <path d="M4.2994,15 C3.5884,16.05 3.2014,17.621 4.1304,20.335 C2.7494,18.344 2.5824,16.487 2.9574,15" id="Highlight" fill="#FFFFFF"></path>
            <path d="M9.4971,0 C11.3041,7.383 17.7321,10.004 18.4971,15.5 C19.1831,20.423 14.4681,24.5 9.4971,24.5 C4.5261,24.5 -0.1549,20.428 0.4971,15.5 C1.1931,10.246 7.5601,7.444 9.4971,0 Z M17.0443761,16.000256 L1.95234037,16.0006981 C1.83823118,17.5214723 2.36974338,19.0334845 3.47616837,20.2944965 C4.95887074,21.9867315 7.21263008,23 9.4971,23 C11.7630895,23 14.0903295,21.9501527 15.5527972,20.2699106 C16.584731,19.0831868 17.1061555,17.6826968 17.0597462,16.2660237 L17.0443761,16.000256 Z M9.48226809,4.16188443 C8.80999203,5.46149053 7.98597836,6.67851436 6.90881362,8.03943573 L6.57796826,8.45225555 C6.29745163,8.79816836 6.06932747,9.07294734 5.62229585,9.6053214 L4.56977241,10.8672415 C4.24739617,11.2606672 4.0090286,11.5631664 3.78848447,11.8596561 L3.52564813,12.2215175 C2.81463519,13.2227221 2.35539048,14.1099318 2.12110315,15.0008709 L16.8794542,15.0004957 C16.5277141,13.5460079 15.6910774,12.3154833 13.6780395,9.93778431 L12.6327897,8.7040534 L12.3705568,8.38756018 C11.1277584,6.87720467 10.2106467,5.57058222 9.48226809,4.16188443 Z" id="Outline" fill="#008CAC"></path>
        </g>
    </g>
</svg>