<?xml version="1.0" encoding="UTF-8"?>
<svg width="20px" height="28px" viewBox="0 0 20 28" version="1.1" xmlns="http://www.w3.org/2000/svg" xmlns:xlink="http://www.w3.org/1999/xlink">
    <title>1469D386-97D9-47BB-B2DC-3A13405A8562</title>
    <g id="Drought-No-ICON" stroke="none" fill="none" fill-rule="evenodd" stroke-width="1">
        <g id="Drought-No-Icon" transform="translate(0.5, 1.5)">
            <rect id="Rectangle" x="0" y="0" width="19" height="25"></rect>
            <path d="M18.4969,15.5 C17.7329,10.004 11.3039,7.383 9.4969,0 C7.5599,7.444 1.1929,10.246 0.4969,15.5 C-0.1551,20.428 4.5269,24.5 9.4969,24.5 C14.4679,24.5 19.1829,20.423 18.4969,15.5" id="Fill" fill="#15CDFF"></path>
            <path d="M4.1309,20.335 C0.2859,14.799 5.7699,10.252 6.5089,12.013 C7.2769,13.842 1.8889,13.787 4.1309,20.335" id="Highlight" fill="#FFFFFF"></path>
            <path d="M9.4971,0 C7.5601,7.444 1.1931,10.246 0.4971,15.5 C-0.1549,20.428 4.5261,24.5 9.4971,24.5 C14.4681,24.5 19.1831,20.423 18.4971,15.5 C17.7321,10.004 11.3041,7.383 9.4971,0 M6.57796826,8.45225555 C6.26628311,8.83660311 6.01928003,9.13313114 5.46480548,9.79277091 C4.41885806,11.036792 3.99290897,11.5635495 3.52564813,12.2215175 C2.63036744,13.4821966 2.13426268,14.5621379 1.98380899,15.6963651 C1.76988929,17.318666 2.29594946,18.9493802 3.47616837,20.2944965 C4.95887074,21.9867315 7.21263008,23 9.4971,23 C11.7630895,23 14.0903295,21.9501527 15.5527972,20.2699106 C16.7204109,18.9271549 17.2344453,17.3107249 17.011861,15.7068355 C16.7529243,13.8439079 15.9561521,12.6083182 13.4405058,9.6582654 C12.9064464,9.03143353 12.6700152,8.75148788 12.3705568,8.38756018 C11.1277584,6.87720467 10.2106467,5.57058222 9.48226809,4.16188443 C8.74276442,5.59145115 7.81965825,6.9210933 6.57796826,8.45225555 Z" id="Outline" fill="#008CAC"></path>
        </g>
    </g>
</svg>