<svg id="forest_large_litter" data-name="forest large litter" xmlns="http://www.w3.org/2000/svg" viewBox="0 0 28 28"><title>Vegetation Forest Large Litter</title><rect id="forest_large_litter_back" data-name="forest large litter back" width="28" height="28" style="fill:#fff"/><path id="forest_large_litter-2" data-name="forest large litter" d="M26,16.3l.34-.26a3.15,3.15,0,0,0,1.62.43v-.69a3.89,3.89,0,0,1-2.38-1l.22-.34c-.05-.38-.64-.43-.4-.89l.45.18c.16.06.33.1.56.17.24-.37.59-.15.94,0v-.62h-1l-1-.76v-.48l.68-.48a1.79,1.79,0,0,1-.7-1.27,1.94,1.94,0,0,0-.23-.69c-.06-.1-.23-.15-.44-.27v1.28l-.79.91.57.27a2,2,0,0,1-2,1.51l-.39.64a9.87,9.87,0,0,0,1.11,0,9.86,9.86,0,0,0,1.13-.23L24,14.5l.24.27-1.06,1a1.65,1.65,0,0,0-1.24.21c-.1.07-.14.23-.22.36l1.57.27c.17-.06.27-.54.7-.36-.24.66-.25.69-.83.85a12,12,0,0,1-3,.47,5.71,5.71,0,0,1-3.45-1.44l.07-.58.55.2.5.16.19-.21c-.37-.43-.74-.84-1.12-1.27l.58-1,.27.23.29-.25.46.6L20,13.53c.59.21,1,.82,1.82.61l-.37-.82c-1.09-.05-2.08-.71-3.16-.45-1.39-.86-1.39-.86-1.64-1.62A1.29,1.29,0,0,1,17.9,12l.49-.44,1.52.18v-.62a2.26,2.26,0,0,0-1.6-.32A4,4,0,0,1,16.5,9.43l.26-.77-.41-.44V7.59l1.1.72c.54-.45,1.23-.09,1.8-.3V7.45c-1.36-.28-2.68-.67-3.19-2.19l.69-.41c-.19-.56-.81-.76-.9-1.34s-.19-1.13-.28-1.7l-.28-.33L15,1.83V3.24A8,8,0,0,1,13.81,5c-.13.19,1-.08,1.2.36l-.25.29L15,6.1A5.06,5.06,0,0,1,12,7.15c-.3.44,0,.63,0,.93a1.23,1.23,0,0,1,1.43,0A1.4,1.4,0,0,1,15,7.71c-.14.56-.7.75-.93,1.2l.51.18c-.12.18-.18.38-.31.46a10.17,10.17,0,0,1-3.78,1.29c-.26.24-.46.49-.13.94a1.07,1.07,0,0,1,1.48-.06l.62-.51.51.31.59-.56.47.72L14.7,11A2.42,2.42,0,0,1,13,12.62a15.44,15.44,0,0,1-3,.68,8.5,8.5,0,0,0-1.32.38,5.14,5.14,0,0,0-.82-.61,6,6,0,0,1-2.08-1.55c-.25-.66-.61-1.23-.34-1.64s0-1.08.38-1.56a.59.59,0,0,0-.25-.87l-.9.8c.75,1-.11,1.92-.19,2.84a8.78,8.78,0,0,1-4.47,3l0,0v.73a1.67,1.67,0,0,0,1.3-.26l.25-.12a4.42,4.42,0,0,0,0,.54,4.48,4.48,0,0,0,.11.51l2.39-1.75.41,0v1.14L4,15.23l.3.88c-.8,1-2,1-3.12,1.35l-.52.48.39.38,1.18-.16.06.54h.79l.87-.86.46.43.3-.25v.71c-1,.42-1.74,1.14-2.84,1.17l-.63.68.6.43.58-.16.52.42,1.25-.91.36.23.62-.52a2,2,0,0,1-1.06,2.07L2.46,23.29c.14.28.23.47.36.72.58-.5,1.24-.21,1.87-.29a4,4,0,0,1,0,.84l-1.06-.14-.24.4.93,1.23L4.11,26l0,.12L3.85,26l-.29-.21,0-.49-.46-.12-.19.28L2.73,25l-.49.13.25.88-.35.15-.66-1.59L1,24.71l.26.63-.5-.61L2,23.82l-.31-.39-1.17.91L0,23.76v.8l.08.09L0,24.71v.63L.39,25l.36.44L0,25.83v.62l.55.31-.55,0v.5H.41l-.13.3H0V28H28V25.19H28l-.87-.93-.37.34.5.53-.2.12-.07.22-1.14-.2-.09.49,1.07.19-.1.32-.77-.16-.63-.21a1.49,1.49,0,0,1,0-.21l1.28-1.44-.38-.33-1,1.1a7.58,7.58,0,0,1,0-1.52c0-.14,0-.28,0-.47l1.7.48.28-.26.86.43h0v-.91a4,4,0,0,1-1.27-.64c-.48-.31-1.22-.41-1.24-1.32l.25-.5c.11.05.24.07.3.14.19.25.37.53.59.85l.82-.27.55.36v-1a6.36,6.36,0,0,1-.71-.21c-1.38-.54-1.4-.49-1.68-1.05.54,0,1,.45,1.57.32l0-.43a1.88,1.88,0,0,1-1.61-.86h.88l.51.47.33-.23.73.1v-.91l-1.59-.39c-.39-.38-.72-.69-1-1-.05,0,0-.2,0-.35ZM.49,26.15.89,26l.19.5Zm1.07,1.4H.83L1,27.27l.58,0,.41.23A1,1,0,0,0,1.56,27.55Zm.83-.82-.06-.15.29-.13.11.38H2.46Zm1.13.82H3.45l-.06-.2H3.5C3.56,27.41,3.6,27.46,3.52,27.55Zm0-.7H3.25L3,26.09,3.1,26l.07.13.21.14h0l.23.37ZM4,26.77l-.11-.24.15,0Zm.79-1L4.18,25l.53.07a1.19,1.19,0,0,0,.09.47Zm19.75-3.31c-.05.44-.1.83-.14,1.2l-.05-.11-.71.32-.21-.41-.44.23.19.39-.43.2a1,1,0,0,1,.13-.28l-.38-.08.47-1,.52-.27C23.75,22.92,24.06,22.92,24.51,22.46Zm-3.82,3.71-.5-.2,0-.16.33-.34h.32l-.11.68h0Zm-1,.13.1,0,.09.33,0,.07-.18-.42ZM21.09,25H21l.27-.28-.36-.35-.6.63H20l.39-1.16-.48-.16-.2.6-.16-.57,1-.5-.24.22,1.42,1.54-.43.5,0-.18Zm-3.74-4.63c.07-.07.39.12.59.14s.22-.08.39-.15l.23.45L19,21c.12-.14.11-.1.26-.22.25.2.53.61.79.53-.22-.68-.32-1.2-1-1.32,0-.19,0-.37,0-.62-.69.64-1.11-.17-1.66-.2-.14-.38-.79-.32-.82-1,.57.17,1,.46,1.58.09.2-.14.67.13,1.22.27l.52.57.92-.92,1.49.75L22,18.16l1.36-.34c.41.11.5.4.47.77-.21.33-.63.51-.73,1l1-.16C23,20.6,22.55,20.78,20.7,20.78l-.6.72.09.14.86-.4c.26.14.53.4.81.41s.49-.25.83-.44l.7.23.42-.24.32.3-.82.45L23,21.7a4.93,4.93,0,0,0-1.19,1.52l.16,0a1.25,1.25,0,0,0,.2-.14A2.78,2.78,0,0,1,22,24.47L20.73,23.1l.78-.39-.22-.45-1.76.87.69-1.05-.42-.27L19,23.06l-.08-.27-1.07.33-.12-.35.58-.14-.12-.48-.63.14L17.08,21l-.47.16.44,1.28-.78.18c0-.75-.12-1.5-.2-2.33C16.56,20.39,16.93,20.8,17.35,20.34ZM17,25l-.41.24v-.08l.71-.35.26.53-.12.21-.05-.37Zm.07,1.25-.15.27h-.12c-.06-.25-.09-.49-.13-.74l.27-.15.09.61Zm.46-2.12-.17-.35.17-.05.12.34Zm-1,.27.24.13-.21.1A1.6,1.6,0,0,1,16.48,24.4Zm.66-1.07L17,23l-.45.21.13.28-.29.09c0-.16,0-.31,0-.47l.9-.21.13.38Zm-2.2.37-.33-.22.33-.07Zm1.93.23.07.15L16.73,24Zm.67,2.47.46-.07.09.19-.07.13-.57-.07ZM18,25.09l-.24-.51.07,0,.2.56Zm.12-1.24L18,23.59l.8-.24-.15.22ZM7.48,16c-.38-.25-.78-.47-1.18-.68-.57-.3-.64-.79-.67-1.56l.79,1.11.35-.35-.36-.4a2.38,2.38,0,0,1,1.65,1.22c.52-.15.27-.38,0-.66.25,0,.51-.08.65,0s.46.5.91.36c0-.17.08-.38.13-.67.45.08.92-.12,1.43.19l.69-.37,1,.24.43-.68h1.14a1.35,1.35,0,0,1-.95,1c-.51.22-1,.41-1.73.67a10.75,10.75,0,0,0,2.7.07c-.11.09-.23.18-.33.28a8.09,8.09,0,0,1-2.75,1.3c-.26.11-.59,0-.88.06A3.71,3.71,0,0,0,8.26,18c-.89-.52-2.07-.6-2.59-1.85v-.36a5.38,5.38,0,0,0,2.48,1.11A1.06,1.06,0,0,0,7.48,16ZM6.66,26.8a1.9,1.9,0,0,0-.07-.46l.34-.2.08.39-.21.16H6.69v.08Zm.32.72a.67.67,0,0,1-.18-.2L7,27.19h.18l.06.33Zm.47-1.33v0Zm.88,1.28-.61,0-.07-.33.78,0,.06.06Zm-.69-.8,0,0h0Zm1.46-.45-.06,0-.88-.06-.47-.48.55-.32,1.35.05-.2.33-1.1-.3L8.16,26l.95.25Zm.28,1.18-.26-.26h.14l.21.25Zm.82-.79-.7,0,0,0,.53-.17.27.08Zm-.31-.72.26-.42v.06l-.27.36Zm1-1.63.86-1.39-.43-.27-1.15,1.88,0-.05L10,23.34l-.49.08.06.41-.31.25.44.56v0h0l.22.28h0l-.84,0,.39-.23-.25-.43-1.08.63H7.74L6.82,24l-.35.36,1,.92-.12.07-.1-.11-.43.23,0,.16-.4.24c-.14-.41-.25-.84-.39-1.23-.21-.6-.07-1.16-.23-1.84.43.18.57.55.89.67L6.88,23,8.4,24l.36-.7a11.76,11.76,0,0,1-1.28-.85,8.7,8.7,0,0,1-1.23-1.27L6.39,21l.29.17L7,20.94l.55.48h.79l0-.52a5,5,0,0,1-.89-.46,5.29,5.29,0,0,1-.89-.88,2,2,0,0,1-.44-1l.59.42,1-.6A4.52,4.52,0,0,0,9,19.65l.09-1L9.94,18l.34.94,1.84-1.19.19.79c.38-.28.87-.23,1.07-.8.11-.32.48-.56.73-.83l.64.9c-.81,1.5-2.39,2-3.9,2.87a3.15,3.15,0,0,0-1,.53c-.14.15-.26.33-.54.69l1.06-.23.11.64a7.84,7.84,0,0,1,.67-.58l.81-.37c-.17.29-.24.22-.24.57l.43.14c.15-.2.31-.24.43-.6H13l.41-.41,1,.18.41-.69s.11.08.11.12c0,.45,0,.9,0,1.35l-1.59-.16,0,.5,1.64.17v.33l-.92.22-.9-.58-.27.42.49.32-2,.46.11.49.92-.22-.57.68-.39-.32Zm2.92.06-.64-.5.75-.18.26.17-.1,0Zm-2.27,1.45.07-.09.33.07L11.6,26A2.21,2.21,0,0,1,11.55,25.77Zm.45.69-.12,0,.2-.15Zm.82-.07-.12.07-.51-.26.36-.27.38.23Zm-.35-1L12,25.26l.85-1L12.51,24l.19,0-.07.09,1,.76-.24.5-.28-.37Zm.51.24.34-.26-.17.36Zm.32.93.06-.12.19.12ZM14,25.16l.22,1-.39-.09L13.58,26Zm.67,2.38h-1l.11-.22,1-.15C14.69,27.29,14.67,27.41,14.64,27.54Zm.21-1h-.1l0,0-.1-.45.21.31A1.1,1.1,0,0,1,14.85,26.51Zm2.22,1.07,0-.11.14.11Zm-2.66-2.8,0-.06h0l-.12-.09.29-.61.42.26c0,.3,0,.6,0,.9Zm4.65,1.44v0h0Zm0-.69h0v-1a1,1,0,0,1-.28-.26L19,24l.11-.06.33,1.2,0,.13Zm1.6,1.41.16-.18.71.27ZM22,26.68l-.42-.17.42,0ZM21.47,26l.5-.59c0,.21,0,.43,0,.65Zm1.28.41.25-.1.2.21-.4.18C22.78,26.6,22.76,26.5,22.75,26.41Zm.51.77-.16-.07.35-.16ZM23.44,25l-.18-.41-.46.19.29.68-.05.12-.4-.44c0-.1,0-.2,0-.3l.75-.35.24.48Zm.38,2.3s0,0-.06,0l.06-.06Zm.12-1.13-.23-.53L24,26l.1,0,.05.09Zm.28.65,0,0v.09Zm0-1.73-.41-.8.48-.22c0,.25-.05.5-.07.75Zm3,.91.17,0-.27.27Zm.49.42.14.16c-.19.38-.22.38-.42.79h-.06L27,27.17Zm-1,.33-.13.12-.39-.23Zm-1.41-.06.91.55,0,0-.11,0-.71,0-.08-.16Z" style="fill:#797979"/></svg>