<svg id="forest_small_litter" data-name="forest small litter" xmlns="http://www.w3.org/2000/svg" viewBox="0 0 28 28"><title>Vegetation Forest Small Litter</title><g id="forest_small_litter_back" data-name="forest small litter back"><rect width="28" height="28" style="fill:#fff"/></g><path d="M22.38,26H28v2H22.38Zm0-1.5V25H28v-.5ZM6.76,26H0v2H6.75C6.75,27.36,6.76,26.69,6.76,26Zm0-1.5H0V25H6.77C6.77,24.83,6.78,24.67,6.78,24.5Zm4,3.47v0h8v0c0-.62,0-1.29.05-2H10.69C10.71,26.68,10.73,27.34,10.75,28Zm-.09-3.47c0,.17,0,.33,0,.5h8.14c0-.17,0-.33,0-.5ZM20.33,6.66c-.37,1.54-1,3.69-3.25,4.65l.21.77a4.17,4.17,0,0,0,2.13-1.24A5.32,5.32,0,0,1,16.09,14l.06,1a8.19,8.19,0,0,0,3.13-1.6c-.34,1.35-1.4,2.35-3.43,3.3l.13.94a7.06,7.06,0,0,0,3.64-2,5.9,5.9,0,0,1-3.15,3.35l.47.88a5.51,5.51,0,0,0,3-2.19c0,3.68-.11,7.25-.19,10.25h1.65c0-3,0-6.87-.15-10.57a5.32,5.32,0,0,0,3.05,2.46l.28-1.08a4.3,4.3,0,0,1-2.85-2.93,5.6,5.6,0,0,0,3.66,1.48l.13-1a5.06,5.06,0,0,1-3.88-3.18,5.74,5.74,0,0,0,3.16,1.49c.07-.49.14-1.05.14-1.05-1.13,0-2.46-1.36-3.36-2.72a5.26,5.26,0,0,0,2.15,1l.24-.85a6.61,6.61,0,0,1-3.62-4.39M9.36,3A11.28,11.28,0,0,1,4.24,8l.37,1.14A8,8,0,0,0,7.53,7.8c-1.1,1.66-2.72,3.33-4.11,3.33l-.31,1.35a2.24,2.24,0,0,0,.52.06,6,6,0,0,0,3.54-1.38A8.14,8.14,0,0,1,2.5,14.81v1.43a16.36,16.36,0,0,0,4.94-2.17A7.23,7.23,0,0,1,3,17.83l.27,1.36A11,11,0,0,0,8,16.58c-.13,4.19-.21,8.05-.21,11.42h2c-.1-3.43-.2-7.31-.22-11.51a6.56,6.56,0,0,0,3.6,2.6l.63-1.28a5.28,5.28,0,0,1-3.3-3.46,8.27,8.27,0,0,0,4.09,1.83L15,14.87a7.14,7.14,0,0,1-4.27-3.8,10.18,10.18,0,0,0,3.5,1.61l.19-1.42a6.5,6.5,0,0,1-4-3.45A10.43,10.43,0,0,0,13,9.25L13.34,8a7.16,7.16,0,0,1-4-5" style="fill:#797979"/></svg>