<svg id="grass" xmlns="http://www.w3.org/2000/svg" viewBox="0 0 28 28"><title>Vegetation Grass</title><g id="grass_back" data-name="grass back"><rect width="28" height="28" style="fill:#fff"/></g><path d="M12.55,28h-.79l3-9.15.71.23ZM7.86,18l-.71-.23L3.76,28h.79Zm5.05,2.85-.71-.23L9.76,28h.79Zm-1.4-1.8-.71-.23L7.76,28h.79Zm-6,0-.71-.23L1.76,28h.79Zm-3,.62L0,27.29V28H.55l2.68-8.07ZM0,23.64l1.7-5.13L1,18.27l-1,3Zm9.23-3.71-.71-.23L5.76,28h.79ZM25.7,18.51,25,18.27,21.76,28h.79Zm1.06,2.85-.71-.24L23.76,28h.79ZM28,23.64V21.26L25.76,28h.79ZM17.86,18l-.71-.23L13.76,28h.79ZM28,27.29l-.24.71H28Zm-8.49-8.21-.71-.23-3,9.15h.79Zm1.56,1.33-.71-.24L17.76,28h.79Zm2.32-.95-.71-.24L19.76,28h.79Z" style="fill:#797979"/></svg>