<svg id="grass" xmlns="http://www.w3.org/2000/svg" viewBox="0 0 28 28"><title>Vegetation Grass</title><rect id="grass_back" data-name="grass back" width="28" height="28" style="fill:#fff"/><path id="grass-2" data-name="grass" d="M27.94,24.94l0-.17c0-.05,0-.11.08-.16v-.16l-.1.12-.13-1.18c-.05-.24-.11-.49-.16-.73l.39-.41v-.73c-.18.18-.35.37-.52.55,0-.07,0-.14-.05-.21v.26a28,28,0,0,0-2.08,2.53c.12-.37.23-.75.37-1.11.15-.56.34-1.1.5-1.66-.29.5-.56,1-.82,1.54-.1.24-.17.5-.26.75,0-.5-.06-1-.1-1.49-.09.52-.16,1-.24,1.55l0,.8c-.26.1-.51.21-.76.33v0a3.7,3.7,0,0,1,.26-.62,8.86,8.86,0,0,1,.53-1.28A8,8,0,0,0,24,24.55a3.81,3.81,0,0,0-.27.66v0l-.53,0c.16-.32.33-.63.49-1-.31.32-.61.65-.89,1h-.06a8.85,8.85,0,0,1,.16-.87A4.34,4.34,0,0,1,23,24c.37-.36.74-.72,1.12-1.06.55-.49,1.12-1,1.69-1.42s1.1-1,1.66-1.48c-.63.39-1.26.79-1.88,1.2s-1.15.94-1.7,1.44l-.59.56s0,0,0,0a10.88,10.88,0,0,1,.54-1.28A7.32,7.32,0,0,0,23,23a3.77,3.77,0,0,0-.26.66.42.42,0,0,0,0,.1l-.46.44,0-.46a41,41,0,0,1,2.92-3.52A31.63,31.63,0,0,1,27.47,18l.53-.5V17c-.29.19-.58.38-.86.59a32.63,32.63,0,0,0-2.41,2.3,39.2,39.2,0,0,0-3,3.65l0-.61c0-.37,0-.74-.08-1.1.16-.09.31-.2.47-.28-.16.05-.32.12-.47.18l0-.36-.06.39c-.53.21-1.05.42-1.57.65a2.61,2.61,0,0,1-.28.17c.16-.52.33-1,.53-1.54.05-.19.1-.37.16-.55l.11-.07c.59-.4,1.2-.77,1.82-1.12-.6.22-1.2.46-1.79.73.06-.21.13-.43.2-.65-.14.24-.27.49-.4.74h0c-.47.27-.93.56-1.39.87.23-.25.43-.51.67-.75.69-.69,1.41-1.35,2.17-2l1.09-1L24,16.35a24.9,24.9,0,0,0-2.56,1.55,28,28,0,0,0-2.21,2c-.28.29-.55.58-.82.88l0-.46c0,.2-.06.4-.09.59-.34.38-.67.76-1,1.15h0c-.1-.47-.2-.95-.31-1.42L18,20c-.48.21-1,.41-1.43.63s-.93.48-1.39.74q-1,.72-2,1.53v-.08c0-.52.1-1,.12-1.56-.16.49-.31,1-.46,1.49l-.1.5,0,0c-.31.26-.6.53-.89.81,0-.18,0-.36,0-.54-.08.23-.15.47-.22.7-.4.39-.8.79-1.18,1.2.22-.5.45-1,.71-1.48s.44-.79.69-1.17.41-.81.62-1.23c-.32.34-.63.68-.92,1s-.47.79-.7,1.19a19.92,19.92,0,0,0-1.1,2.45l-.16.18c-.23.07-.46.15-.69.21.07-.16.16-.33.24-.49L9.64,26l-.48,0c.12-.25.25-.51.38-.75s.44-.77.68-1.13.4-.79.6-1.2c-.31.32-.61.66-.9,1s-.46.76-.68,1.15-.34.63-.49,1l-.34,0c0-.32,0-.64.08-.95a25.51,25.51,0,0,1,4.57-4.6,22.69,22.69,0,0,1,3-1.94c.51-.32,1.06-.57,1.59-.86s1.11-.47,1.67-.71c-.59.15-1.19.28-1.77.47s-1.16.4-1.72.66a22.28,22.28,0,0,0-3.09,2,25.54,25.54,0,0,0-3.69,3.51l-.26.1c0-.06,0-.13,0-.19a4.39,4.39,0,0,1,.26-.63,9.3,9.3,0,0,1,.54-1.27,6.87,6.87,0,0,0-.86,1.13,4.67,4.67,0,0,0-.27.65l-.15.47-.89.38,0-.3c0-.24,0-.47,0-.7A16.76,16.76,0,0,1,9,22a18.34,18.34,0,0,1,1.66-1.1c.55-.38,1.12-.73,1.71-1.06a20,20,0,0,0-1.88.76,17.81,17.81,0,0,0-1.7,1.12c-.47.35-.91.73-1.34,1.12l0-.43c0,.17-.06.35-.08.52l-.5.49a3.58,3.58,0,0,1,.09-.35c.08-.29.19-.56.29-.84.51-.33,1-.65,1.58-1-.49.18-1,.38-1.46.58.05-.14.09-.28.14-.41.15-.56.34-1.1.5-1.66-.29.5-.57,1-.82,1.53-.1.24-.17.48-.25.72l-.24.11c-.37.2-.73.43-1.09.65h0a3.45,3.45,0,0,1,.25-.63,4.93,4.93,0,0,1,.24-.64,25.81,25.81,0,0,1,3.47-3.22,21.66,21.66,0,0,1,2.55-1.69c.42-.29.87-.54,1.31-.81l1.38-.71c-.49.15-1,.3-1.49.47s-1,.39-1.45.61a25.1,25.1,0,0,0-2.61,1.73A27.12,27.12,0,0,0,4.75,22.3c-.23.27-.44.55-.65.83V23l0-.35.09-.17-.09.1,0-.42.31-.19L4,22.06c0-.22,0-.44,0-.66,0,.24-.08.48-.11.72q-.62.22-1.2.48c.05-.21.09-.42.16-.63.16-.55.34-1.09.55-1.62s.34-1.1.5-1.66c-.29.5-.57,1-.83,1.53s-.4,1.09-.56,1.65c-.09.3-.15.6-.23.91l0,0c-.42.23-.83.49-1.24.75,0-.06,0-.11,0-.17l.07-1.55C1,21.44,1,21,1,20.65c.17-.16.34-.33.52-.48A24.51,24.51,0,0,1,4,18.34c.41-.3.84-.58,1.26-.87l1.34-.78c-.48.18-1,.35-1.46.55s-1,.44-1.41.68a23,23,0,0,0-2.51,1.87c-.41.35-.81.72-1.19,1.09v.77c.3-.31.58-.62.89-.91-.06.36-.11.72-.17,1.08L.65,23.37l0,.39c-.11.08-.24.14-.36.22L0,24.17v.42c.15-.1.3-.22.46-.32l.14-.08c0,.27,0,.55,0,.82l-.44.19L0,25.27v.4l.28-.16.13-.08A3.83,3.83,0,0,0,.19,26c-.07.2-.14.4-.19.6V28H.11a.06.06,0,0,0,0,0l.21-.09c0,.05,0,.09,0,.13H.66l0-.26.53-.19v0c-.08.13-.15.27-.22.41h.63a1.74,1.74,0,0,0,0-.22l0-.07.24-.41L2.86,27a1.09,1.09,0,0,1,0,.18l-.1.11-.14.24-.41.33L1.9,28H3.81l0-.3v0c.36-.12.72-.21,1.08-.32,0,.19.06.38.09.57L4.84,28H5.91v0H6l0,0h.59c.06-.1.12-.21.19-.31L7,27.6l0,.4h2c.1-.14.21-.27.32-.41h0c0,.14-.06.27-.1.41H10.5l.27-.1,0,.1h1.75l.06-.15.35-.11-.26.26h1l0,0,.06-.09a.5.5,0,0,0,0,.12h1.51l.41-.16V28H16c0-.1,0-.2,0-.3l.5-.2,0,.45V28h.35v0l0-.59.51-.18c-.06.07-.12.13-.17.2s-.25.4-.37.61H18.6l0-.12.2-.06-.1.18h.8l.32-.45.07,0c0,.15,0,.3,0,.45l0,0h.6l.64-.45v0c0,.11,0,.21,0,.32l-.24.1h1.87l.51-.16a.31.31,0,0,1,0,.1l0,.06h.59l.23-.39.27-.08c0,.15-.05.31-.08.47h2l0-.08.81-.2,0,.28h.64c.05-.09.09-.18.13-.27l0,.27H28V25.5h0C28,25.31,28,25.13,27.94,24.94Zm-19.19-1,.17-.1-.21.25S8.74,24,8.75,23.91ZM.36,27.48l-.2.08,0-.18.2-.19Zm.1-1c0,.06,0,.13,0,.2l-.13.12a.08.08,0,0,0,0,0,3.17,3.17,0,0,1,.15-.5C.47,26.32.46,26.39.46,26.47Zm1.05.36a1.42,1.42,0,0,1-.08.18s0,.07,0,.11l-.66.24c0-.18,0-.35.05-.53l.46-.43.4-.32C1.6,26.33,1.56,26.58,1.51,26.83Zm.27-1.56c0,.09,0,.18-.05.28-.24.2-.48.38-.72.59l-.19.18c0-.38,0-.77.07-1.15v0c.34-.2.67-.41,1-.6C1.87,24.77,1.82,25,1.78,25.27Zm.15-.82L1,24.8c.09-.19.19-.39.28-.6l-.39.47c0-.23,0-.47,0-.7.4-.25.8-.49,1.21-.72Q2,23.85,1.93,24.45Zm1,1.44c0,.26,0,.51,0,.76l-.69.21c.24-.41.49-.82.74-1.22Zm.36,1.61-.11,0h0c.08-.05.15-.12.23-.18Zm0-.51.06-.12.16-.05Zm.27-.6-.06.07-.27.08c0-.21,0-.42,0-.63l0-.85c.12-.18.24-.34.36-.51C3.65,25.16,3.61,25.78,3.57,26.39Zm.15-2.77-.38.54s0-.09,0-.13.15-.27.24-.4.11-.23.17-.35Zm0-.73c-.15.18-.32.35-.47.53,0-.2,0-.41,0-.62-.06.31-.1.62-.15.94s-.35.57-.51.85-.15.3-.23.44l-.21.18c.12-.75.27-1.49.44-2.22.42-.26.85-.51,1.28-.76C3.84,22.45,3.8,22.67,3.76,22.89Zm3.65,2.82h0l0,0Zm-.06,1,0,0,.69-.17c0,.13,0,.27,0,.41l-.75.22C7.34,27,7.35,26.83,7.35,26.69Zm.33-.47c.13-.18.24-.36.37-.53l0,0c0,.16,0,.32,0,.48Zm-3.61,1c.08-.16.15-.31.24-.47l.15-.2.12-.08.23-.07c0,.2,0,.39.06.58C4.61,27.09,4.33,27.16,4.07,27.25Zm.7-2c-.21.31-.39.64-.58,1l-.27.09c0-.61.08-1.22.11-1.82l0-.29c.27-.19.53-.4.81-.58L5,23.58A8.25,8.25,0,0,0,4.77,25.29Zm-.1-1.93a2.27,2.27,0,0,0-.25.18q.35-.46.72-.93c.06-.08.13-.15.2-.23l-.12.32c0,.14-.09.27-.13.4Zm.69.11s0-.1,0-.14c.44-.27.87-.55,1.32-.79,0,.15-.11.3-.16.46s-.16.62-.23.94-.38.37-.56.56-.34.4-.51.6c.15-.3.3-.59.45-.9-.2.21-.38.43-.57.65A7.09,7.09,0,0,1,5.36,23.47Zm.8,1.14c0,.16-.06.33-.1.5-.24.15-.49.28-.73.44.23-.27.46-.55.7-.81Zm-.55,3.1-.27.09c0-.18-.06-.36-.08-.54l.45-.14C5.67,27.32,5.64,27.51,5.61,27.71Zm.22-1.31-.06.33-.56.17c0-.18,0-.37-.06-.56l.72-.18A2,2,0,0,1,5.83,26.4Zm.11-.61-.54.13.06,0L6,25.57C6,25.64,6,25.71,5.94,25.79Zm.3,1.69L6,27.57c0-.19.07-.37.1-.56l.56-.17C6.5,27.05,6.37,27.27,6.24,27.48ZM7,26.28l-.09.12-.38.1c-.14,0-.27.08-.41.12l0-.17c0-.12.05-.25.07-.38l.15,0,.66-.2Zm0-.75a.38.38,0,0,0,0,.1l-.75.06h0c0-.13.05-.25.07-.37l.72-.44ZM7.15,24l0,.5-.66.39c0-.25.12-.5.18-.75s.38-.4.58-.59C7.2,23.68,7.17,23.83,7.15,24Zm.93,3.54L8,27.68,7.28,28l0-.48.8-.24a.77.77,0,0,1,0,.15Zm.12-2.83c-.18.24-.37.46-.55.7-.05.07-.09.14-.14.2H7.42v-.05l0-.87c.28-.18.57-.34.85-.51C8.27,24.35,8.23,24.52,8.2,24.69Zm.21,1.69.21-.06c-.07.14-.13.29-.2.43C8.42,26.63,8.41,26.5,8.41,26.38Zm.14.94a1.63,1.63,0,0,1,.11-.23l.4-.13Zm13.68-1.56h0c0,.13,0,.26,0,.39a.35.35,0,0,1-.05.08Zm-3.75-4a1.84,1.84,0,0,0,.22-.17c.42-.3.86-.57,1.31-.84l-.11.19c-.21.54-.4,1.09-.56,1.65a2.86,2.86,0,0,0-.07.28c-.29.17-.57.33-.84.51l.06-1.47Zm-.08,2c.25-.16.5-.3.75-.45-.15.59-.28,1.18-.39,1.78l-.45.19C18.34,24.8,18.38,24.3,18.4,23.79Zm-1,2.42v0h0Zm-.23-2.57c0,.19,0,.37.05.56-.34.24-.68.47-1,.72v-.38a.86.86,0,0,0,0-.16c.3-.41.6-.8.91-1.19Zm-4.46,1.51c.33-.19.66-.4,1-.59l-.95.36.12-.56.13-.68h0c.78-.67,1.6-1.29,2.44-1.88l.28-.2c-.22.39-.44.78-.64,1.18,0,0,0,.09-.05.14-.27.29-.54.58-.79.89s-.47.76-.69,1.15-.39.74-.57,1.11l-.5.16A1.89,1.89,0,0,1,12.5,26l.43-.14-.41,0Zm2.25-2c-.15.42-.31.84-.43,1.26-.06.19-.09.38-.14.56l-.89,1-.05,0c.13-.28.27-.56.42-.83s.43-.76.67-1.13S14.78,23.43,14.92,23.15Zm-3.24,2c0-.09,0-.18,0-.27q.41-.41.84-.78l0,.21c-.05.26-.11.53-.16.8l-.7.29Zm-.68.45.3-.31-.07.34c-.12.06-.23.14-.35.21ZM9.88,26.82h0l-.05.07S9.87,26.84,9.88,26.82Zm1,.67c-.38.14-.77.29-1.15.45l.32-.62.18-.06L11,27C10.92,27.19,10.88,27.34,10.85,27.49Zm.19-.9v.05l-.75.23c.05-.1.12-.2.18-.3l.61-.15Zm.71,1.16-.64.23a2,2,0,0,1,.05-.24l.65-.23A2.1,2.1,0,0,1,11.75,27.75Zm.15-.65-.66.24.09-.42.65-.2C12,26.85,11.93,27,11.9,27.1Zm.17-.77-.66.2,0-.21h0l.66-.21C12.1,26.19,12.08,26.26,12.07,26.33Zm.13,1.06v0h0Zm0-1.47-.63,0,0-.14.16-.1.56-.33C12.23,25.57,12.19,25.74,12.15,25.92Zm.14,1c0-.12.05-.24.08-.36l.39-.12c-.06.12-.12.25-.17.37Zm1.49,0-.29.27-.77.23a2.14,2.14,0,0,1,.1-.22l.06-.07c.31-.11.64-.19.95-.29A.35.35,0,0,0,13.78,26.93Zm.23-.5-.7.21.34-.39.41-.11C14,26.24,14,26.34,14,26.43Zm.17-.77,0,.1-.09,0Zm.66,1.62v.15c-.25.18-.51.35-.75.53,0,0,0-.06,0-.09s.07-.35.1-.52l.66-.2A.51.51,0,0,1,14.84,27.28Zm.08-.51-.54.16.17-.24,0,0,.06-.06.32-.09C15,26.59,14.94,26.68,14.92,26.77Zm.76.68-.5.2v0c.17-.12.34-.25.51-.36C15.69,27.32,15.68,27.39,15.68,27.45Zm-.5-.39.24-.08.08,0-.32.23Zm.55-.51-.4.1-.18.05c0-.08,0-.16,0-.24l.55-.17.06,0C15.75,26.36,15.74,26.45,15.73,26.55Zm0-.64-.17,0-.24.07.42-.34Zm0-.7-.46.38h0l.52-.75Zm-.36-.7c-.27.38-.52.76-.78,1.14h-.08l0,0,.12-.52c.27-.28.52-.56.79-.82l.39-.36Zm-.24-.43-.36.38c.16-.53.34-1.05.54-1.57s.27-.92.41-1.38l.86-.64.32-.21c0,.48,0,1,0,1.44l0,.35v0c-.31.25-.6.52-.89.79,0-.09,0-.19,0-.28l-.06.35C15.75,23.58,15.47,23.82,15.2,24.08Zm1.33,3-.49.19c0-.1,0-.21,0-.31l0,0,.44-.26h0Zm0-.85-.18.11-.31.08a2.45,2.45,0,0,1,0-.27l.51-.13C16.61,26.13,16.59,26.2,16.58,26.27Zm.09-.58-.54.13v-.3h0v-.14l.65-.48C16.75,25.16,16.71,25.42,16.67,25.69Zm.19-.05c0-.25,0-.5-.05-.75l.41-.29c0,.32.06.64.08,1l-.18,0Zm.3.29-.27.16V26ZM16.89,27v-.38h0l.47-.15a2.45,2.45,0,0,0,0,.27.22.22,0,0,0,0,.08Zm.41.91.17-.27c0,.07,0,.15,0,.22Zm.5-.5c0-.12,0-.24,0-.36l.06,0C17.83,27.16,17.81,27.28,17.8,27.41Zm.08-.88a.45.45,0,0,1,0,.11h0l-.1,0,0-.33.17-.06C17.89,26.38,17.89,26.45,17.88,26.53Zm0-.35-.19,0c0-.06,0-.13,0-.19l.22-.13C17.92,26,17.91,26.08,17.9,26.18Zm.05-.71-.08,0,0,0h-.19c0-.39-.07-.77-.1-1.16L18,24Zm.12-2a.76.76,0,0,1,0,.15l0,0-.5.36,0-.37-.09-.82.38-.48.37-.28Zm.35,3.63-.28.46.06-.61.26-.08C18.45,26.91,18.43,27,18.42,27.06ZM18.61,26c0,.15-.06.31-.08.46l-.3.09,0-.34.14-.05h-.14l0-.49.31-.19.08,0h0l.07-.05C18.68,25.6,18.64,25.79,18.61,26Zm1.05.56c-.18.27-.37.55-.54.83l-.09,0-.33.1.06-.31c.1-.18.2-.36.31-.53l.63-.19Zm.39-1.05c0,.11,0,.21,0,.32h0c0,.07-.07.14-.11.22l-.63.18c.13-.26.28-.53.41-.8-.28.28-.54.58-.79.88,0-.08,0-.17,0-.25.05-.3.11-.58.16-.87.3-.18.59-.37.89-.54l-.85.33c.11-.63.25-1.26.42-1.87.2-.12.38-.24.58-.35l.18-.11c-.08.44-.14.88-.21,1.31Zm.21,2.23c0-.09,0-.19,0-.28l.34-.08.27-.09C20.68,27.42,20.47,27.56,20.26,27.72Zm.88-.75-.6.05-.24.06V27c.24-.3.46-.61.71-.9h0l.17,0Zm.11-1.68c-.14.16-.29.3-.42.46l-.09,0c.08-.13.16-.27.25-.4l.27-.36C21.26,25.11,21.25,25.2,21.25,25.29ZM21.32,24c-.21.22-.41.44-.61.68l-.3.5.06-1.2-.09-1.36c.37-.24.76-.46,1.15-.68-.06.33-.11.67-.16,1Zm.13,3.67v0c0-.11,0-.22,0-.32l.26-.18Zm.39-1.14a.34.34,0,0,1,0,.1l0,0c-.1.07-.18.14-.28.2l.06-.92.31-.07Zm.05-1-.31.08a.49.49,0,0,1,0-.12c.1-.12.21-.24.32-.35Zm.1-1c-.13.13-.25.27-.37.4,0-.13,0-.25,0-.38h0l.44-.59ZM22.16,27l.09-.17c0,.1,0,.21,0,.32s0,.13,0,.2l-.15.06Zm.08.75.09,0h0Zm.08-2.4h-.08l0-.42a2.11,2.11,0,0,0,0-.25l.24-.26A9.3,9.3,0,0,0,22.32,25.38Zm.92,2.09c-.19.06-.39.11-.57.18v0l.58-.23Zm0-.48-.66.26s0-.06,0-.09c0-.2,0-.4,0-.59.28-.18.56-.35.85-.51C23.37,26.37,23.32,26.68,23.28,27Zm-.6-.89c.11-.19.22-.39.34-.57l.62-.2-.09.25Zm.91,1.22s0-.05,0-.07l0,0Zm.75-.18-.06,0c0-.05,0-.1.08-.14A.5.5,0,0,1,24.34,27.14Zm.4-1.7,0,.1-.3.44c-.17.25-.31.52-.47.78l-.29.1a8.72,8.72,0,0,1,.16-.89c0-.06,0-.11.05-.17l.06,0c.27-.18.55-.33.83-.5Zm2.89-.08a1.64,1.64,0,0,0,0,.23l-.19.06a2.53,2.53,0,0,0,.13-.22A.43.43,0,0,0,27.63,25.36Zm-2.56.55c.53-.78,1.1-1.54,1.7-2.27,0,.44,0,.87,0,1.31l0,.32c-.22.24-.43.47-.63.71l0,.07-.5.15c.16-.27.31-.55.48-.81s.41-.79.6-1.19c-.31.32-.61.65-.89,1s-.47.77-.69,1.15l-.09,0Zm1.52,0c.08-.15.15-.3.23-.46l0,.38Zm.11.33c0,.06-.06.1-.09.15l-.08.16-.35.09.18-.29Zm-.84.26-.15.26-.45.11.12-.23Zm-.75,1.36-.17.05,0-.48a.91.91,0,0,0,.07-.14l.24-.07.18,0C25.34,27.4,25.23,27.63,25.11,27.86Zm.87-.24-.41.1c.08-.14.14-.28.22-.42s.1-.16.14-.24l.39-.09Zm.45-.11c.11-.22.22-.44.34-.66h0L27,26.8c0,.19,0,.38.05.57Zm.68-2.6c-.1-.44-.19-.88-.29-1.33.2-.24.4-.49.61-.72v.57l.16,1.49c-.1.11-.2.21-.29.32a2.53,2.53,0,0,0-.13.22Zm.17,1.55,0-.38.44-.13c0,.16,0,.32,0,.48l-.44,0Zm.12,1.37a1.49,1.49,0,0,0,0-.21l.16-.05C27.49,27.65,27.45,27.74,27.4,27.83Zm.27-.52-.31,0-.06-.65.44-.14c0,.18,0,.36,0,.53S27.71,27.24,27.67,27.31Z" style="fill:#797979"/></svg>