<svg id="forest_small_litter" data-name="forest small litter" xmlns="http://www.w3.org/2000/svg" viewBox="0 0 28 28"><title>Vegetation Forest Small Litter</title><rect id="forest_small_litter_back" data-name="forest small litter back" width="28" height="28" style="fill:#fff"/><path id="forest_small_litter-2" data-name="forest small litter" d="M28,26l-.33.35.24.27c-.19.38-.22.38-.42.79l-.71,0a2.09,2.09,0,0,0-.25-.18l-.45.07c-.27,0-.53,0-.8,0,.17-1.46-.27-2.42-.13-3.86,0-.14,0-.28,0-.47l1.7.48.28-.26.86.43h0v-.91a4,4,0,0,1-1.27-.64c-.48-.31-1.22-.41-1.24-1.32l.25-.5c.11.05.24.07.3.14.19.25.37.53.59.85l.82-.27.55.36v-1a6.36,6.36,0,0,1-.71-.21c-1.38-.54-1.4-.49-1.68-1.05.54,0,1,.45,1.57.32l0-.43a1.88,1.88,0,0,1-1.61-.86h.88l.51.47.33-.23.73.1v-.91l-1.59-.39c-.39-.38-.72-.69-1-1-.05,0,0-.2,0-.35l.61.54.34-.26a3.15,3.15,0,0,0,1.62.43v-.69a3.89,3.89,0,0,1-2.38-1l.22-.34c-.05-.38-.64-.43-.4-.89l.45.18c.16.06.33.1.56.17.24-.37.59-.15.94,0v-.62h-1l-1-.76v-.48l.68-.48a1.79,1.79,0,0,1-.7-1.27,1.94,1.94,0,0,0-.23-.69c-.06-.1-.23-.15-.44-.27v1.28l-.79.91.57.27a2,2,0,0,1-2,1.51l-.39.64a9.87,9.87,0,0,0,1.11,0,9.86,9.86,0,0,0,1.13-.23L24,14.5l.24.27-1.06,1a1.65,1.65,0,0,0-1.24.21c-.1.07-.14.23-.22.36l1.57.27c.17-.06.27-.54.7-.36-.24.66-.25.69-.83.85a12,12,0,0,1-3,.47,5.71,5.71,0,0,1-3.45-1.44l.07-.58.55.2.5.16.19-.21c-.37-.43-.74-.84-1.12-1.27l.58-1,.27.23.29-.25.46.6L20,13.53c.59.21,1,.82,1.82.61l-.37-.82c-1.09-.05-2.08-.71-3.16-.45-1.39-.86-1.39-.86-1.64-1.62A1.29,1.29,0,0,1,17.9,12l.49-.44,1.52.18v-.62a2.26,2.26,0,0,0-1.6-.32A4,4,0,0,1,16.5,9.43l.26-.77-.41-.44V7.59l1.1.72c.54-.45,1.23-.09,1.8-.3V7.45c-1.36-.28-2.68-.67-3.19-2.19l.69-.41c-.19-.56-.81-.76-.9-1.34s-.19-1.13-.28-1.7l-.28-.33L15,1.83V3.24A8,8,0,0,1,13.81,5c-.13.19,1-.08,1.2.36l-.25.29L15,6.1A5.06,5.06,0,0,1,12,7.15c-.3.44,0,.63,0,.93a1.23,1.23,0,0,1,1.43,0A1.4,1.4,0,0,1,15,7.71c-.14.56-.7.75-.93,1.2l.51.18c-.12.18-.18.38-.31.46a10.17,10.17,0,0,1-3.78,1.29c-.26.24-.46.49-.13.94a1.07,1.07,0,0,1,1.48-.06l.62-.51.51.31.59-.56.47.72L14.7,11A2.42,2.42,0,0,1,13,12.62a15.44,15.44,0,0,1-3,.68,8.5,8.5,0,0,0-1.32.38,5.14,5.14,0,0,0-.82-.61,6,6,0,0,1-2.08-1.55c-.25-.66-.61-1.23-.34-1.64s0-1.08.38-1.56a.59.59,0,0,0-.25-.87l-.9.8c.75,1-.11,1.92-.19,2.84a8.78,8.78,0,0,1-4.47,3l0,0v.73a1.67,1.67,0,0,0,1.3-.26l.25-.12a4.42,4.42,0,0,0,0,.54,4.48,4.48,0,0,0,.11.51l2.39-1.75.41,0v1.14L4,15.23l.3.88c-.8,1-2,1-3.12,1.35l-.52.48.39.38,1.18-.16.06.54h.79l.87-.86.46.43.3-.25v.71c-1,.42-1.74,1.14-2.84,1.17l-.63.68.6.43.58-.16.52.42,1.25-.91.36.23.62-.52a2,2,0,0,1-1.06,2.07L2.46,23.29c.14.28.23.47.36.72.58-.5,1.24-.21,1.87-.29.12.77-.15,1.5.2,2l-.21.46L4.11,26l-.14.8-.26-.57-.33.08.23.37-.25.49c0,.22.31.23.16.41h-1a2.78,2.78,0,0,0-.91,0H0V28H28ZM7.48,16c-.38-.25-.78-.47-1.18-.68-.57-.3-.64-.79-.67-1.56l.79,1.11.35-.35-.36-.4a2.38,2.38,0,0,1,1.65,1.22c.52-.15.27-.38,0-.66.25,0,.51-.08.65,0s.46.5.91.36c0-.17.08-.38.13-.67.45.08.92-.12,1.43.19l.69-.37,1,.24.43-.68h1.14a1.35,1.35,0,0,1-.95,1c-.51.22-1,.41-1.73.67a10.75,10.75,0,0,0,2.7.07c-.11.09-.23.18-.33.28a8.09,8.09,0,0,1-2.75,1.3c-.26.11-.59,0-.88.06A3.71,3.71,0,0,0,8.26,18c-.89-.52-2.07-.6-2.59-1.85v-.36a5.38,5.38,0,0,0,2.48,1.11A1.06,1.06,0,0,0,7.48,16Zm3.18,8.2-.32.37a.58.58,0,0,0-.26.48c.19,1,.25,1.41.42,2.29-1.16,0-2.3.16-3.52.16-.48-.36-.21-.77-.42-1.29s-.33-1.09-.52-1.6S6,23.47,5.81,22.79c.43.18.57.55.89.67L6.88,23,8.4,24l.36-.7a11.76,11.76,0,0,1-1.28-.85,8.7,8.7,0,0,1-1.23-1.27L6.39,21l.29.17L7,20.94l.55.48h.79l0-.52a5,5,0,0,1-.89-.46,5.29,5.29,0,0,1-.89-.88,2,2,0,0,1-.44-1l.59.42,1-.6A4.52,4.52,0,0,0,9,19.65l.09-1L9.94,18l.34.94,1.84-1.19.19.79c.38-.28.87-.23,1.07-.8.11-.32.48-.56.73-.83l.64.9c-.81,1.5-2.39,2-3.9,2.87a3.15,3.15,0,0,0-1,.53c-.14.15-.26.33-.54.69l1.06-.23.11.64a7.84,7.84,0,0,1,.67-.58l.81-.37c-.17.29-.24.22-.24.57l.43.14c.15-.2.31-.24.43-.6H13l.41-.41,1,.18.41-.69s.11.08.11.12c0,1.73,0,3.47,0,5.2a10.51,10.51,0,0,1-.29,1.64h-1c.06-.13.12-.23.18-.36l-.33-.07-.32-.91-.43.26-.57-.28-.24.49a1.71,1.71,0,0,1-.08-2l-.4-.33Zm7.9-3.44L19,21c.12-.14.11-.1.26-.22.25.2.53.61.79.53-.22-.68-.32-1.2-1-1.32,0-.19,0-.37,0-.62-.69.64-1.11-.17-1.66-.2-.14-.38-.79-.32-.82-1,.57.17,1,.46,1.58.09.2-.14.67.13,1.22.27l.52.57.92-.92,1.49.75L22,18.16l1.36-.34c.41.11.5.4.47.77-.21.33-.63.51-.73,1l1-.16C23,20.6,22.55,20.78,20.7,20.78l-.6.72.09.14.86-.4c.26.14.53.4.81.41s.49-.25.83-.44l.7.23.42-.24.32.3-.82.45L23,21.7a4.93,4.93,0,0,0-1.19,1.52l.16,0a1.25,1.25,0,0,0,.2-.14c.22.73-.31,1.35-.2,2.05a15.22,15.22,0,0,1,0,2.25H20.34c.11-.27.19-.49.29-.75L20,26.24l-.17.5-.23-.54-.55.21V24.54c-.25-.15-.34-.4-.56-.53l-.59,0a4,4,0,0,1,.21,1.58l-.28.37.32.43-.29.44.27.53c-.07.08-.11.17-.16.18-.3,0-.6,0-.91,0a11.94,11.94,0,0,1-.49-2.39c-.07-.8-.27-1.58-.29-2.38s-.14-1.64-.22-2.55c.49.13.86.54,1.28.08.07-.07.39.12.59.14s.22-.08.39-.15Zm5.69,4.07c0,.71,0,1.43,0,2.19l-.41.14c0,.16,0,0,0,.15a.63.63,0,0,1-.92-.06,11.64,11.64,0,0,1-.23-1.55A2.84,2.84,0,0,1,22.85,24l-.38-.08.47-1,.52-.27c.29.29.6.29,1.05-.17C24.4,23.41,24.29,24.13,24.25,24.85Z" style="fill:#797979"/></svg>