<svg id="shrub" xmlns="http://www.w3.org/2000/svg" viewBox="0 0 28 28"><title>Vegetation Shrub</title><rect id="shrub_back" data-name="shrub back" width="28" height="28" style="fill:#fff"/><path id="shrub-2" data-name="shrub" d="M20.92,28H20.6a.35.35,0,0,1,.25-.07c.06,0,.09,0,.1,0Zm-.19-.28c.05-.12,0-.19,0-.22s-.26,0-.4.24a.44.44,0,0,0-.13-.35.84.84,0,0,0-.15-.68,1.4,1.4,0,0,0,1-.18,4.47,4.47,0,0,1,.25.6.77.77,0,0,0-.43-.11c-.11,0-.16,0-.18.06s.27.27.66.18a3.41,3.41,0,0,0,.37.74h.22c-.05-.07-.12-.13-.17-.21a.71.71,0,0,0,.53-.48c.05-.11,0-.19,0-.22s-.51.17-.55.66a.5.5,0,0,1-.08-.12c-.17-.35-.3-.79-.49-1.17l.1-.05c.27-.17.4-.33.41-.46s-.38-.35-.94-.1a1.34,1.34,0,0,0-.46-.29c-.07,0-.11.08,0,.12a1.61,1.61,0,0,1,.36.24,3.54,3.54,0,0,0-.82.64h0c-.47,1-.12,1.53.15,1.39a.68.68,0,0,0,.12-.12.49.49,0,0,0,.09.15h.37A.92.92,0,0,0,20.73,27.72ZM28,28v-.79c-1.3-.45-2.08,0-1.89.31.07.11.25.2.58.23a1.49,1.49,0,0,0,1.24-.27A.8.8,0,0,0,28,28Zm-1.28-.18h0a1.4,1.4,0,0,0-1.31.23H26.6A.82.82,0,0,0,26.72,27.78Zm-8.62-.59h0A1.53,1.53,0,0,0,18,28h.65A1.15,1.15,0,0,0,18.1,27.19Zm7,.81h-1.3s-.05,0-.06-.06,0,0,0,.06h-.69a.22.22,0,0,1,.08-.1c.08,0,.14-.11.2-.14l-.1-.05a.54.54,0,0,1-.09.12,1.69,1.69,0,0,1-.29.17h-.25l.36-.18a.47.47,0,0,0,.19-.15,1.18,1.18,0,0,1-.24-.19.78.78,0,0,0-.37.32.09.09,0,1,1-.16-.09,1.11,1.11,0,0,1,.42-.35c-.16-.21-.19-.41-.09-.48s.18,0,.34.08l.15.12.25-.23a5.54,5.54,0,0,1,.26-1.14.79.79,0,0,1-.43.14h0a.49.49,0,0,1-.16.27c-.48.47-.76.3-.79.27h0a1.39,1.39,0,0,1,.72-.66c0-.1.21-.22.58-.21a1.29,1.29,0,0,1-.42-.48,3.27,3.27,0,0,1-.83.47.1.1,0,1,1-.06-.19c.07,0,.12-.06.18-.08l.24-.24a2.23,2.23,0,0,1-.81,0,.77.77,0,0,1-.59-.24c-.17-.28.43-.67,1.5-.44a1.53,1.53,0,0,1-.77-1.06h0a1.36,1.36,0,0,1,1.16.71.4.4,0,0,1,.09.19s0-.05,0-.09a1.19,1.19,0,0,1,0-.67l0-.08s0,0,0-.06,0,0,.05,0a.81.81,0,0,1,0-.11.19.19,0,0,1,.11.09h0c-.39-.28-.5-.65-.36-.74s.19,0,.35.08a1.4,1.4,0,0,1,.37.35,1.43,1.43,0,0,1,0-.54h-.09c-.5,0-.54-.27-.55-.32-.12.16-.42.39-1.16.31a1,1,0,0,1-.36-.09.53.53,0,0,1-.12.17.7.7,0,0,1,0,.14c.52-.29.89-.16.84,0a.3.3,0,0,1-.22.14c-.5.14-.63-.08-.65-.11h-.06c0,.07-.18.27-.68.25,0,0,0,0,0,.06s-.1.12-.25.16c-.54.15-.69-.1-.71-.13h0s0-.05,0-.08a.79.79,0,0,1-.58-.52c-.05-.13,0-.21,0-.25s.5.16.58.64c.06-.35.3-.53.41-.46s.06.09,0,.21a.65.65,0,0,1-.25.37,1.46,1.46,0,0,1,.39-.11s0,0,0,0c-.1-.17.29-.38.94-.2a.78.78,0,0,1-.32-.38c-.05-.12,0-.19,0-.23s.27.05.41.25a.48.48,0,0,1,.09-.34,1.79,1.79,0,0,1-.79.07c-.28,0-.45-.11-.51-.21s.35-.55,1.21-.39a2.58,2.58,0,0,1-.6-1.15h0c.06,0,.53-.26,1.08.63a.61.61,0,0,1,.05-.12,1.25,1.25,0,0,1,.05-.59S22,20,22,20s.19-.53,1-.52a2.32,2.32,0,0,1-.73-.89h0s.41-.3,1.05.38a.28.28,0,0,1,0-.09,1,1,0,0,1-.06-.56h0s0,0,0-.07c0-.19.09-.27.17-.29s.35.24.35.62a1.1,1.1,0,0,1,0,.35,1.58,1.58,0,0,1,.37-.35c.17-.11.29-.13.35-.08s0,.46-.36.74h0c.11,0,.17,0,.18.06s-.22.24-.55.2a1.75,1.75,0,0,1,.29.27.73.73,0,0,1,.24.48.14.14,0,0,1,0,.06l.16.17.11,0a.19.19,0,0,1-.16-.05c-.07-.06-.06-.2.07-.39a1.38,1.38,0,0,1,1.11-.71,2,2,0,0,1-.06-.57c-.17.21-.41.26-.47.17s0-.1,0-.2a.64.64,0,0,1,.36-.27c-.54,0-.82-.19-.72-.31s.14-.07.29-.06c.56.05.62.32.63.36h0c-.2-.61-.14-.9.05-.88s.14.08.19.23a.73.73,0,0,1,0,.55,1,1,0,0,1,.75.11c.18.09.27.18.29.26s-.4.3-1-.07a.93.93,0,0,1,.06.62.79.79,0,0,1-.12.32c-.11.19-.21.05-.28-.18a1.52,1.52,0,0,1-.75,1,2.27,2.27,0,0,1,1.14,0c-.1-.66.25-1.15.48-1.09s.17.13.19.36a1.27,1.27,0,0,1-.31,1,.18.18,0,0,1,0,.19s-.06,0-.08.06c.17,0,.48.2.59.64.18-.7.76-1,1-.91s.1.19,0,.4a1.3,1.3,0,0,1-.92.84v.12h0c0,.05-.27.44-1.15.21-.24-.07-.36-.16-.39-.25-.09-.24.43-.46,1.2-.13a1.06,1.06,0,0,1-.35-.56.31.31,0,0,1,0-.29,1,1,0,0,1-.43.12,2.23,2.23,0,0,1-.81,0l.24.24.18.08a.1.1,0,1,1-.06.19,3.45,3.45,0,0,1-.83-.47,1.37,1.37,0,0,1-.41.48c.36,0,.56.11.57.21a1.36,1.36,0,0,1,.72.66h0s-.32.2-.79-.27a.39.39,0,0,1-.16-.27h0a.69.69,0,0,1-.45-.16c-.25.31-.48.37-.54.26a.41.41,0,0,1-.06.11,1,1,0,0,1,.71.08c.07-.13.17-.2.25-.19s.15.1.18.29c0,0,0,0,0,.07h0a1,1,0,0,1-.07.56s0,.06,0,.09c.64-.68,1-.41,1-.38h0a2.41,2.41,0,0,1-.74.89c.77,0,1.13.34,1,.52,0,0-.06,0-.1.06a1.4,1.4,0,0,1,.05.59.56.56,0,0,1,0,.12c.51-.82.95-.69,1.06-.64a2.13,2.13,0,0,1,1.3,0v.52a1.92,1.92,0,0,1-1,.11.88.88,0,0,1-.45-.14,2.1,2.1,0,0,1-.44.68c.87-.16,1.35.15,1.21.39s-.22.18-.51.21a1.81,1.81,0,0,1-.79-.07.53.53,0,0,1,.1.34c.13-.2.32-.3.4-.25s0,.11,0,.23a.83.83,0,0,1-.31.38c.65-.18,1,0,.94.2s-.14.11-.33.13c-.59.06-.73-.17-.77-.25H26v0s0,0,0,0l0,0h0s.22.19-.06.58c-.08.11-.15.16-.21.16s-.17-.18,0-.42a7.58,7.58,0,0,0-.93.86A.69.69,0,0,1,25.12,28Zm.55-10.26a2.15,2.15,0,0,0,0,.52A2.15,2.15,0,0,1,25.67,17.74Zm-.05.7h0v0Zm0,.09s0,0,.07.07a2.31,2.31,0,0,0,.11.73,2.31,2.31,0,0,1-.11-.73c0-.05,0-.07-.07-.07Zm-1.94,3a.33.33,0,0,1-.14,0v.12Zm0-.27a1.31,1.31,0,0,1,0-.15s0,0,0,0l-.13,0A.65.65,0,0,1,23.66,21.23Zm.25-.28a.66.66,0,0,1,0,.21.07.07,0,0,1,0,.05c.22-.23.37-.27.47-.26l-.18-.15A1,1,0,0,1,23.91,21Zm-1.65.4s0,0,0,0h0Zm.52.43a1,1,0,0,1-.15-.27,1.05,1.05,0,0,1-.39-.11s0,.07-.09.07h0a.19.19,0,0,1-.11.07.8.8,0,0,1-.3.25.13.13,0,0,1,.06.08A1.6,1.6,0,0,1,22.78,21.78Zm.57-.51a.59.59,0,0,1-.14-.21A.54.54,0,0,1,22.9,21c-.17-.19.2-.54,1-.52a.83.83,0,0,1-.08-.12,1.75,1.75,0,0,1-.55-.5,1.17,1.17,0,0,1-.61.25,1.35,1.35,0,0,1-.28.92.35.35,0,0,1-.08.33.78.78,0,0,1,.59-.09c.12,0,.18.07.18.11s-.06.09-.16.13a.8.8,0,0,1,.34.31.26.26,0,0,1,0,.08C23.15,21.57,23.24,21.33,23.35,21.27Zm2.15,4.49a.86.86,0,0,1,.36.1s0-.07.07-.08a.66.66,0,0,1-.3-.25l-.06,0A2.33,2.33,0,0,1,25.5,25.76Zm-.09-.36a1.15,1.15,0,0,1-.4.11,1,1,0,0,1-.15.27,2.39,2.39,0,0,1,.44,0,2,2,0,0,0,.14-.3Zm-.05-.06h0Zm-2.13-.87.67-.69a.84.84,0,0,0,.06-.14c0-.08.14-.05.13,0a2.06,2.06,0,0,1-.47,1l.19,0h0a1.3,1.3,0,0,1,.58.16,3.19,3.19,0,0,0,.31.16.6.6,0,0,1-.47.1L24,25v0a.69.69,0,0,1-.09.29.13.13,0,0,1,0,.06h0a.31.31,0,0,1,.2-.08c0-.08.05-.12.09-.13s.27.28.13.63a.3.3,0,0,1,0-.08.84.84,0,0,1,.33-.31c-.09,0-.16-.08-.16-.13s.06-.09.18-.11a.75.75,0,0,1,.59.09.38.38,0,0,1-.08-.33,1.35,1.35,0,0,1-.28-.92c-.56-.09-.73-.34-.77-.47a.11.11,0,0,1-.08-.08h0a.14.14,0,0,1-.06-.07.83.83,0,0,1-.44,0,.92.92,0,0,1-.32.88s0,0,0,0a.19.19,0,0,1-.16.05Zm.91,1a.33.33,0,0,1-.14,0,1.31,1.31,0,0,1,.15.12A.45.45,0,0,1,24.14,25.5Zm-.39-.29a.11.11,0,0,0,0-.05.66.66,0,0,1,0-.21.77.77,0,0,1-.26-.15l-.18.15C23.38,24.94,23.54,25,23.75,25.21Zm-.16,2.43a.74.74,0,0,0,.05-.26,1.37,1.37,0,0,0,0-.27l-.06.06-.07,0a.24.24,0,0,0,0,.08s0,0,0,0A.83.83,0,0,1,23.59,27.64Zm.59-.49a9.11,9.11,0,0,0,.72-.78c-.47-.09-.59-.35-.61-.42-.05.1-.24.08-.47-.17-.08.31-.14.63-.21.94l.09-.07a2.19,2.19,0,0,0,.07-.23.2.2,0,0,1,.1.07l.3-.27a1.4,1.4,0,0,1,.1-.16s.11,0,.09.05a3,3,0,0,1-.42.68.9.9,0,0,1-.34.87v0A6.78,6.78,0,0,1,24.18,27.15Zm.5.61a7.29,7.29,0,0,1,1.13-1,.69.69,0,0,1-.45,0c-.14,0-.21-.09-.23-.14s.32-.28.84,0a.74.74,0,0,1,0-.14.52.52,0,0,1-.13-.17.89.89,0,0,1-.36.09,1.65,1.65,0,0,1-.38,0c-.16.21-.32.4-.48.58a9.17,9.17,0,0,0-.8.77A2.41,2.41,0,0,1,24.68,27.76Zm-2.82-4.39c.17,0,.21-.37-.27-.75h0s-.22.19.07.58C21.72,23.32,21.8,23.37,21.86,23.37Zm1.53-6.84h0c0,1,.74,1.42,1,1.24.08-.06.1-.19,0-.41A1.17,1.17,0,0,0,23.39,16.53Zm3,7.25c0,.09.16.15.39.12a1.33,1.33,0,0,0,.86-.37,1.31,1.31,0,0,0,.33.36V23c-.18-.13-.36-.18-.45-.12s-.06.13,0,.25a1.17,1.17,0,0,0-1,.38s0-.06,0-.08-.07-.06-.18-.06a.63.63,0,0,0-.49.17c-.12-.35-.4-.53-.51-.46s-.05.11,0,.22a.7.7,0,0,0,.56.48h0a.53.53,0,0,0,0-.18.72.72,0,0,0,.61-.08A.28.28,0,0,0,26.42,23.78ZM18,28H16a.45.45,0,0,1-.17-.1l-.07,0,0,.07H15.1a1.86,1.86,0,0,1,.31-.52c.16-.17.28-.23.36-.2h0A2,2,0,0,1,16.2,27a1.86,1.86,0,0,1-.66-.55c0-.06.05-.13.1-.08l.12.11.9.32.09-.07a.27.27,0,0,1-.17,0s0,0,0,0a1,1,0,0,1-.66-.66.87.87,0,0,1-.41.18s0,.07,0,.09h0a.13.13,0,0,1,0,.1c0,.14,0,.43-.49.76a1.23,1.23,0,0,1,.17.74h-.49a1.42,1.42,0,0,1-.19-.52h-.12c-.23-.09-.06-.56.64-.89a2.2,2.2,0,0,1-.8-.32,1.4,1.4,0,0,1-.64.83c.17,0,.41.13.66.54a.67.67,0,0,1,.12.33l.05,0h-.87a.42.42,0,0,1,.15-.08,2.07,2.07,0,0,1-.37-.76h0c.05-1.44.78-2,1-1.72a.65.65,0,0,1,0,.43A1.59,1.59,0,0,1,15,26l0-.09a1.07,1.07,0,0,1-.3-.48h0a.33.33,0,0,0,0-.06c-.06-.18,0-.29,0-.34s.5.11.65.55a1.5,1.5,0,0,1,.1.55s0,0,0,.07l0,0a1.23,1.23,0,0,1,0-.21,1.48,1.48,0,0,0,.25-.66,2,2,0,0,1,.05-.31c.2,0,.25.61-.23,1.14h0a1.74,1.74,0,0,0,.27-.17c0-.14,0-.24,0-.28s.45.09.62.47a1.3,1.3,0,0,1,.69-.94h0A1.54,1.54,0,0,1,17,26.56c.86-.68,1.57-.59,1.54-.26,0,.13-.14.3-.42.48a2.38,2.38,0,0,1-.75.31l.32.12a1.36,1.36,0,0,0,.2,0,.1.1,0,1,1,0,.2,3.41,3.41,0,0,1-.95-.07,1.32,1.32,0,0,1-.17.62c.34-.17.58-.14.61,0A1,1,0,0,1,18,28Zm-1.65-.15a.53.53,0,0,1-.1-.12l0,0-.1.07Zm.53-.55-.26-.06a1,1,0,0,1-.16.26.82.82,0,0,1,.06.19l0,0C16.62,27.41,16.76,27.32,16.85,27.3Zm9.61-4a.55.55,0,0,0,.38-.27,1,1,0,0,0,.24-.82,1.32,1.32,0,0,0,.92.27v-.73a3,3,0,0,0-1.08.22h0v0C26.08,22.62,26.15,23.28,26.46,23.27ZM8.83,28H8.68l0-.06a.6.6,0,0,1-.09-.37.75.75,0,0,1-.41.13c-.14,0-.23,0-.26-.05s.09-.28.49-.29a1,1,0,0,1-.25-.23L7.91,27a0,0,0,0,0,0,0,4.65,4.65,0,0,1-1.23-.26s0,.08-.1.15a.37.37,0,0,1,0,.23,1.13,1.13,0,0,1-.36.56,1.52,1.52,0,0,1,1-.12A1.76,1.76,0,0,1,7.57,27h0a1.12,1.12,0,0,1,.22,1H6a.66.66,0,0,1-.1-.11h0v-.11a1.34,1.34,0,0,1-.92-.85v0a.18.18,0,0,1,0-.17c0-.09,0-.17,0-.2l0,0a1,1,0,0,1,.26-.3l0,0c-.06.07-.23.18-.61.07l-.09,0a1.48,1.48,0,0,1-.2.36.51.51,0,0,1-.38.27c-.16,0-.25-.18-.18-.46l-.1.07a6.57,6.57,0,0,0-.26.61A.77.77,0,0,1,3.77,27q.16,0,.18.06c0,.1-.27.27-.66.18a3.9,3.9,0,0,1-.36.74H2.7a1.73,1.73,0,0,0,.17-.21.71.71,0,0,1-.47-.38,4.06,4.06,0,0,1-.19.59H1.78a1.69,1.69,0,0,1-.29-.17.58.58,0,0,1-.1-.12l-.1.05a1.21,1.21,0,0,1,.2.14.26.26,0,0,1,.09.1H.89s0,0,0-.06L.82,28H0v-.24a2.24,2.24,0,0,1,.79,0A8.76,8.76,0,0,0,0,27v-.34c.15.17.31.35.46.5a5.55,5.55,0,0,1,.58.54v0a.93.93,0,0,1-.33-.87,3,3,0,0,1-.43-.68h0v0a.75.75,0,0,1-.28.22v-.74a.78.78,0,0,1,.24.24.26.26,0,0,1,0,.08c-.12-.3,0-.54.08-.6a.59.59,0,0,1-.14-.21H.13L0,25.14V24.5H0c.21-.09.35-.09.41,0h0a2.27,2.27,0,0,1,.47,0,.83.83,0,0,1-.08-.12,1.75,1.75,0,0,1-.55-.5A.71.71,0,0,1,0,24V22.72A2.6,2.6,0,0,1,.27,23a.28.28,0,0,1,0-.09,1,1,0,0,1-.06-.56h0s0,0,0-.07c0-.19.09-.27.17-.29s.35.24.35.62a1.1,1.1,0,0,1,0,.35,1.58,1.58,0,0,1,.37-.35c.17-.11.28-.13.35-.08-.11-.3.56-.66,1.7-.33A1.74,1.74,0,0,1,3,22a.11.11,0,0,1-.1.07,4.65,4.65,0,0,1-1.23-.26c0,.06-.08.26-.54.3A.36.36,0,0,1,.86,22c-.1-.11.17-.33.71-.27L.7,21.42a.64.64,0,0,1-.33-.11l-.06,0c0,.09.07.25-.12.51a.32.32,0,0,1-.19.14v-.46a1,1,0,0,1,.2-.22l0,0a.34.34,0,0,1-.16.09v-.21H0s0,0,.06,0l.11,0s0,0,0-.06A.51.51,0,0,1,0,20.52c0-.1.05-.15.09-.16s.21.15.2.38c.14-.2.32-.3.4-.24s.06.1,0,.22a.82.82,0,0,1-.32.39l.18-.05h0s.08-.13.31-.13c.06,0,.09,0,.1,0s0,.05-.06.08c.34,0,.53.14.46.26a.37.37,0,0,1-.21.11l.24.08.14,0a.3.3,0,0,1,.08-.25c0-.05.07-.06.09-.05s.05.19-.12.31a7.54,7.54,0,0,0,1.32.27,1.34,1.34,0,0,1-.34-.51.47.47,0,0,1,0-.09,1,1,0,0,0-.2.21c-.06.08-.18,0-.12-.08a1,1,0,0,1,.29-.26c0-.08,0-.15.06-.18l.09.1L3,20.82a.47.47,0,0,0,.19-.15,1.18,1.18,0,0,1-.24-.19.78.78,0,0,0-.37.32.09.09,0,1,1-.16-.09,1.11,1.11,0,0,1,.42-.35c-.16-.21-.19-.41-.09-.48s.18,0,.34.08l.15.12.2-.18a.81.81,0,0,1,.1-.3,2,2,0,0,1,0-.26h0s0-.09,0-.15a2.54,2.54,0,0,1,.14-.47.79.79,0,0,1-.43.14h0a.49.49,0,0,1-.16.27c-.48.47-.76.3-.79.27h0A1.39,1.39,0,0,1,3,18.72c0-.1.21-.22.58-.21A1.29,1.29,0,0,1,3.19,18a3.27,3.27,0,0,1-.83.47.1.1,0,1,1-.06-.19c.07,0,.12-.06.18-.08L2.72,18a2.23,2.23,0,0,1-.81,0,.77.77,0,0,1-.59-.24.21.21,0,0,1,0-.19,1.24,1.24,0,0,1-.31-1c0-.23.08-.34.18-.36s.59.43.48,1.09a2.27,2.27,0,0,1,1.14,0,1.53,1.53,0,0,1-.77-1.06h0a1.32,1.32,0,0,1,1,.54c0-.42.19-.72.36-.69s.14.1.17.29a1.34,1.34,0,0,1,0,.35v0c.66-.72,1-.44,1.08-.41h0a2.27,2.27,0,0,1-.85,1l-.22.3a2,2,0,0,1,.81.18,3.19,3.19,0,0,0,.31.16.52.52,0,0,1-.31.09.45.45,0,0,1-.13.21.51.51,0,0,1,.07.6.3.3,0,0,1,0-.08.84.84,0,0,1,.33-.31c-.09,0-.16-.08-.16-.13s.06-.09.18-.11a.75.75,0,0,1,.59.09A.38.38,0,0,1,5.27,18c-.47-.66-.27-1.33,0-1.33.09,0,.19.08.26.28a1.42,1.42,0,0,1,.08.7.56.56,0,0,1,0,.12c.55-.89,1-.66,1.08-.63h0a2.58,2.58,0,0,1-.61,1.15c.87-.16,1.35.15,1.21.39s-.22.18-.51.21A1.81,1.81,0,0,1,6,18.82a.53.53,0,0,1,.1.34c.13-.2.32-.3.4-.25s0,.11,0,.23a.83.83,0,0,1-.31.38c.65-.18,1,0,.94.2s-.14.11-.33.13c-.59.06-.73-.17-.77-.25H6v0s0,0,0,0l0,0h0s.22.19-.06.58c-.08.11-.15.16-.21.16s-.17-.18,0-.42a7.58,7.58,0,0,0-.93.86c.31.12.43.31.32.43a3.19,3.19,0,0,1-.31-.16L4.66,21l-.15.15-.36.42a1,1,0,0,1-.32.49c.77-.33,1.29-.11,1.21.12a.39.39,0,0,1-.16.15,1.35,1.35,0,0,1,.5.8c.12-.49.49-.73.65-.63s.09.15,0,.33a1.07,1.07,0,0,1-.36.56c.78-.33,1.29-.11,1.21.13,0,.09-.16.18-.4.25a1.54,1.54,0,0,1-.82,0,5.16,5.16,0,0,1,1,1.82.5.5,0,0,0,.08.12.71.71,0,0,1,.44-.66,3.44,3.44,0,0,1-.05-.45c0-.17,0-.36,0-.54L6.78,23a.7.7,0,0,1-.46-.21l.17,0A1.16,1.16,0,0,1,6,21.62a.43.43,0,0,1,.11-.31s0,0,0,0H6a.51.51,0,0,1-.36-.14c-.12-.2.39-.49,1.23-.18h0a1.34,1.34,0,0,1,.31.34,1.43,1.43,0,0,1,1,.7c.14.19.14.33.07.39s-.72-.06-1-.63h0c-.07,0-.15-.05-.24-.17s-.18-.41-.14-.51a.72.72,0,0,1-.33.16c.44.17.69.78.8,1.33.26,0,.45.05.6,0l.23,0,.28-.28s0,0,0-.06a.73.73,0,0,1,.24-.48,1.78,1.78,0,0,1,.3-.27c-.34,0-.58-.1-.55-.2s.06-.06.17-.06h0c-.39-.28-.5-.65-.36-.74s.19,0,.35.08a1.4,1.4,0,0,1,.37.35,1.1,1.1,0,0,1,0-.35c0-.38.2-.64.35-.62s.15.1.18.29c0,0,0,0,0,.07h0a1,1,0,0,1-.07.56s0,.06,0,.09c.64-.68,1-.41,1-.38h0a2.41,2.41,0,0,1-.74.89c.77,0,1.13.34,1,.52,0,0-.06,0-.1.06a1.4,1.4,0,0,1,0,.59.56.56,0,0,1,0,.12,2.17,2.17,0,0,1,.43-.51h0a.51.51,0,0,1-.36-.14c-.12-.2.39-.49,1.23-.18h0c.52.41.48.82.29.81s-.15-.05-.24-.17-.18-.41-.14-.51a.58.58,0,0,1-.21.12l-.2.19c-.14.16-.2.5-.62.76l-.09.06a.35.35,0,0,1-.11.2A3.27,3.27,0,0,1,9.66,25a9.17,9.17,0,0,0-.8.77,2.41,2.41,0,0,1,.82,0,7.29,7.29,0,0,1,1.13-1,.69.69,0,0,1-.45,0c-.14,0-.21-.09-.23-.14s.32-.28.84,0a.74.74,0,0,1,0-.14.5.5,0,0,1-.17-.52c0-.11.05-.16.09-.16s.2.15.2.38c.13-.2.32-.3.4-.25s.05.11,0,.23a.83.83,0,0,1-.31.38c.65-.18,1,0,.94.2s-.14.11-.33.13c-.59.06-.73-.17-.77-.25H11v0s0,0,0,0l0,0h0s.22.19-.06.58c-.08.11-.15.16-.21.16s-.17-.18,0-.42a7.58,7.58,0,0,0-.93.86.67.67,0,0,1,.3.2h.06a3,3,0,0,1,1.22.21h0a1.7,1.7,0,0,1,.67.93.91.91,0,0,1,.67-.12,1.56,1.56,0,0,1-.46-.56c-.59.06-.77-.23-.79-.27h0A2.13,2.13,0,0,1,12.2,26a.23.23,0,0,1,.07-.11c.06,0,.16,0,.26.07.36,0,.56.13.51.28a.31.31,0,0,1-.14.14,1.23,1.23,0,0,1,.17.83l.11,0h0l0,0h0s.21.29,0,.77h-.65a2,2,0,0,1,.38-.53,1.08,1.08,0,0,1-.65.12.53.53,0,0,1-.22-.06.17.17,0,0,1-.12,0l-.09,0a1,1,0,0,1,.12.19.17.17,0,0,1,.16.06.39.39,0,0,1,.06.2h-.61s0,0,0,0a1.21,1.21,0,0,1-.8-.56,1.3,1.3,0,0,1-.92.44c-.21,0-.32,0-.37-.12s0,0-.09,0L9,27.57a.36.36,0,0,1-.33-.14h0a.08.08,0,0,1,0,0A.51.51,0,0,1,8.83,28ZM6.68,22.69l0-.12a1.42,1.42,0,0,1,0,.16Zm2.66,4.75a.69.69,0,0,0-.17-.5.92.92,0,0,1-.24.29A3.17,3.17,0,0,1,9.34,27.44Zm.3-.38a.55.55,0,0,1,.06.22,1.36,1.36,0,0,1,1-.17c.06-.09.19-.11.41,0a1.43,1.43,0,0,1,.35.18,1,1,0,0,1-.21-.77,1.49,1.49,0,0,1-1.21.28A.88.88,0,0,1,9.64,27.06Zm-.46-.51a2,2,0,0,1,.33.32,1.09,1.09,0,0,1,.05-.26.41.41,0,0,1-.12-.09.17.17,0,0,1,0-.21H9.4C9.33,26.38,9.26,26.47,9.18,26.55Zm-.42-.61a.32.32,0,0,0,.1.33L9,26.4l.17-.16A.81.81,0,0,1,8.76,25.94Zm1.65-2.54a1.15,1.15,0,0,1-.4.11c-.16.42-.54.6-.64.5a.08.08,0,0,1,0-.07h0l0,0c0,.13-.24.13-.49-.15-.08.31-.14.63-.21.94l.09-.07a2.19,2.19,0,0,0,.07-.23.2.2,0,0,1,.1.07l.3-.27a1.4,1.4,0,0,1,.1-.16s.11,0,.09.05a3,3,0,0,1-.42.68.9.9,0,0,1-.34.87v0a6.78,6.78,0,0,1,.58-.54,5,5,0,0,0,1.26-1.71Zm-1.77,2a1.37,1.37,0,0,0,0-.27l-.06.06-.07,0a.24.24,0,0,0,0,.08s0,0,0,0a.83.83,0,0,1,.14.31A.74.74,0,0,0,8.64,25.38Zm.51-1.76a.45.45,0,0,1,0-.12.33.33,0,0,1-.14,0Zm1.21-.28h0Zm-.19-.17c-.1-.08-.24-.1-.42-.22v0a.52.52,0,0,1-.31.09.45.45,0,0,1-.13.21.51.51,0,0,1,.07.6l0-.08a.84.84,0,0,1,.33-.31c-.09,0-.16-.08-.16-.13s.06-.09.18-.11a.75.75,0,0,1,.59.09l0-.07A.73.73,0,0,0,10.17,23.17Zm-1.41-.72a1.79,1.79,0,0,1,.48,0l0,0c.06-.06.2-.06.41,0a1.73,1.73,0,0,1,.54.35,1.34,1.34,0,0,1-.18-.77,1.17,1.17,0,0,1-.61-.25,1.85,1.85,0,0,1-.54.5Zm-.47.5c.09,0,.25,0,.46.26,0,0,0-.06,0-.1h0a.31.31,0,0,1,.16.22.59.59,0,0,1,.21-.29,1.35,1.35,0,0,1-.67-.25ZM7.36,23a2.15,2.15,0,0,1,0,.23h0l.1-.05L7.72,23A1.25,1.25,0,0,1,7.36,23Zm0,1.31A1.32,1.32,0,0,1,8,23.72c0-.1.21-.22.58-.21A1.29,1.29,0,0,1,8.19,23a3.18,3.18,0,0,1-.82.46Zm0,.25.31.88.18-.12c-.16-.21-.19-.41-.09-.48s.18,0,.34.08l.15.12.25-.23a5.54,5.54,0,0,1,.26-1.14.79.79,0,0,1-.43.14h0a.49.49,0,0,1-.16.27c-.43.42-.7.32-.77.28A1.48,1.48,0,0,0,7.33,24.6Zm.6.88a1,1,0,0,0-.24.16l.1.28.19-.1a.47.47,0,0,0,.19-.15A1.18,1.18,0,0,1,7.93,25.48Zm-1.16.31a2.11,2.11,0,0,0,.44.53.82.82,0,0,1,.26-.23,4.19,4.19,0,0,1-.23-.68A.71.71,0,0,1,6.77,25.79Zm-3.1-3.38a.09.09,0,0,1,0,.06,1.16,1.16,0,0,1,.44.89,3.21,3.21,0,0,1,1.19.21h0l.12.06a.09.09,0,0,1,0-.05h0s0-.08,0-.12a1.28,1.28,0,0,1-.92-.84.31.31,0,0,1,0-.13A1.08,1.08,0,0,1,3.67,22.41Zm1.69-4.07h0Zm-.5.44a1.59,1.59,0,0,1,1,.08s0-.07.07-.08a.66.66,0,0,1-.3-.25.19.19,0,0,1-.12-.07h0s-.06,0-.08-.07a1.15,1.15,0,0,1-.4.11A1,1,0,0,1,4.86,18.78Zm-1,0a2.81,2.81,0,0,1-.08.31,1.24,1.24,0,0,1,.53,0s.05,0,.07,0h0L4.29,19C4.24,19.05,4.05,19,3.82,18.78Zm.32-.28a.33.33,0,0,1-.14,0l.15.12A.45.45,0,0,1,4.14,18.5Zm-.91-1,.17-.17a0,0,0,0,1,0,0c-.05.05-.07.08-.1.09s0,0,0,0a.19.19,0,0,1-.16.05Zm.52.74s0-.06,0-.1h0a.31.31,0,0,1,.16.22.59.59,0,0,1,.21-.29,1.35,1.35,0,0,1-.67-.25L3.29,18C3.38,17.94,3.54,18,3.75,18.21Zm-.08,1.23a.18.18,0,0,1,.1,0,.2.2,0,0,1,.1.07L4,19.34a.9.9,0,0,1-.22.05H3.69ZM3.6,20.66s0,.05,0,.08l.09,0a2.46,2.46,0,0,1,1,0,7.29,7.29,0,0,1,1.13-1,.69.69,0,0,1-.45,0c-.14,0-.21-.09-.23-.14s.32-.28.84,0a.74.74,0,0,1,0-.14.52.52,0,0,1-.13-.17.89.89,0,0,1-.36.09c-.74.08-1-.15-1.16-.31v0h0a3,3,0,0,1-.42.68A.9.9,0,0,1,3.6,20.66Zm-.31,1.2,0,0h0a2.14,2.14,0,0,0,.19-.13c.13-.45.49-.67.64-.58s0,0,0,.07L4.48,21c-.19,0-.34,0-.46-.05a1.49,1.49,0,0,1-.29-.12c-.24.34-.62.37-.67.27s0-.09.09-.15.14-.11.2-.14l-.1-.05a.54.54,0,0,1-.09.12,3.09,3.09,0,0,1-.43.24l.1.09C3.21,21.49,3.17,21.71,3.29,21.86Zm.28,1.52s0,.05,0,.08l0,0Zm.05-1h0ZM.88,25.16a.07.07,0,0,1,0,.05c.22-.23.37-.27.47-.26l-.18-.15A1,1,0,0,1,.91,25,.66.66,0,0,1,.88,25.16Zm1.39.11a1.93,1.93,0,0,1,0-.23A1.25,1.25,0,0,1,1.92,25l.24.24.11.05ZM1.45,25a1.37,1.37,0,0,1-.41.48c.36,0,.56.11.57.21a1.33,1.33,0,0,1,.7.63c0-.29,0-.58,0-.86A3.35,3.35,0,0,1,1.45,25Zm.07-.59a.19.19,0,0,1-.16-.05s0,0,0,0a.36.36,0,0,1-.09-.09s0,0,0,0l.16.17Zm-1,.61a.65.65,0,0,1,.16.18,1.31,1.31,0,0,1,0-.15s0,0,0,0Zm0,.57.14-.12a.33.33,0,0,1-.14,0Zm-.13.44a1.22,1.22,0,0,1,.53,0c0-.1-.05-.2-.08-.31C.6,26,.4,26.05.35,26a.41.41,0,0,1-.06.11h0S.35,26,.37,26.06Zm.6.38v-.06H.83a1,1,0,0,1-.22-.05l.17.15a.17.17,0,0,1,.1-.07A.15.15,0,0,1,1,26.44Zm1.34.16v-.21c-.08,0-.35.14-.77-.28a.39.39,0,0,1-.16-.27h0a.78.78,0,0,1-.42-.14c0,.05,0,.1.07.16L1.59,27c.15-.09.27-.11.33-.07s.07.27-.09.48l.18.12Zm.11-2.32c.17-.56.49-1.1,1-1.07a1.13,1.13,0,0,1-.21-.53l-.1,0a.44.44,0,0,1-.21,0,2.15,2.15,0,0,1-.91.07c-.32,0-.5-.12-.57-.23.13.17-.11.67-.79.91a2.11,2.11,0,0,1,.38.33v0a1.36,1.36,0,0,1,0-.35c0-.19.09-.28.17-.29a1.57,1.57,0,0,0,.09.29,1.42,1.42,0,0,1,0,.67s0,.06,0,.09A.79.79,0,0,1,1.43,24a1.37,1.37,0,0,1,1.16-.71h0a1.57,1.57,0,0,1-.78,1.06A2.77,2.77,0,0,1,2.42,24.28Zm1.84.86c.16-.65.66-1,.89-.93a.65.65,0,0,1,0-.39,1.56,1.56,0,0,1-1.25.27,1,1,0,0,1-.3-.07,1.21,1.21,0,0,1-.27.58.18.18,0,0,1,0,.19.7.7,0,0,1-.46.21l-.38,1.1c0,.18,0,.37,0,.54a3.42,3.42,0,0,1,0,.45.74.74,0,0,1,.44.66A1.27,1.27,0,0,0,3,27.63c.15-.3.27-.67.42-1a1.3,1.3,0,0,1-.43.1c-.23,0-.36,0-.39-.13S3,25.87,3.78,26l.16-.16a1.54,1.54,0,0,1-.82,0c-.24-.07-.36-.16-.4-.25-.08-.24.44-.46,1.21-.13a1.13,1.13,0,0,1-.36-.56c0-.18,0-.29.05-.33S4.14,24.65,4.26,25.14Zm.94.9A.48.48,0,0,1,5,25.67a.91.91,0,0,1-.23,0,2,2,0,0,1-.38-.07s0,0,0,0a.49.49,0,0,1,.12.38,1.12,1.12,0,0,1,.48.11s0,0,.06,0l.11,0S5.19,26.06,5.2,26Zm1.37.7-.87-.32a.64.64,0,0,1-.33-.11l-.06,0c0,.09.07.25-.12.51h0c.38.33.34.55.45.7l.18.21A1.23,1.23,0,0,1,6,27.06a.28.28,0,0,1-.18,0C5.76,26.9,6,26.68,6.57,26.74Zm-1.25-1,.06-.09H5.31A.38.38,0,0,1,5.32,25.74Zm2.14,1a3.1,3.1,0,0,1-.72-.68,3.63,3.63,0,0,1-.39-.79c-.39.09-.69-.08-.66-.18s.07-.06.18-.06a.77.77,0,0,1,.43.11,3.48,3.48,0,0,0-.54-1.05c.33.47.23.84,0,.83s-.24-.08-.38-.27a1.06,1.06,0,0,1-.12-.2.65.65,0,0,1,0,.18,1.3,1.3,0,0,1-.92.84v.12h0l0,.05.12-.06h0a3.89,3.89,0,0,1,.71-.18l0,0,0,0c.85-.1,1.32.23,1.17.47a2,2,0,0,1-.44-.12l-.16,0v0a.82.82,0,0,1-.32.39l.18-.05h0s.08-.13.31-.13c.06,0,.09,0,.1,0s0,.05-.06.08c.34,0,.53.14.46.26a.37.37,0,0,1-.21.11l.24.08.14,0a.3.3,0,0,1,.08-.25c0-.05.07-.06.09-.05s0,.19-.12.31C6.87,26.61,7.17,26.67,7.46,26.73Zm.34,0a3.15,3.15,0,0,1-.28-.51,1,1,0,0,0-.2.21A3.88,3.88,0,0,0,7.8,26.71Zm1-.13a.78.78,0,0,1-.3-.54v0c-.19.11-.38.11-.41,0s0-.09.09-.15.14-.11.2-.14l-.1-.05a.54.54,0,0,1-.09.12,1.63,1.63,0,0,1-.34.19l.23.67.07.11a.46.46,0,0,1,.19.09h0A2.63,2.63,0,0,0,8.76,26.58Zm-.06.54a.67.67,0,0,1,.09-.21,1.94,1.94,0,0,1-.24.15Zm12-6.51h0c-.93-.26-1.57.31-1.47.58,0,.09.16.15.39.13A1.18,1.18,0,0,0,20.74,20.61Zm-15,7.3h0a3.12,3.12,0,0,0-1.17-.22.71.71,0,0,0,0-.15c0-.1-.06-.15-.1-.16s-.18.13-.19.34h0c-.14-.17-.3-.25-.38-.2s0,.1,0,.22a.7.7,0,0,0,.06.09.65.65,0,0,0-.15.12h0c-.07,0-.1,0-.1,0s0,0,0,0H5.88Zm12.54-.69c.07.07.22.1.46.06.9-.17.94-.63.94-.68h0c-.29-.74-1-.87-1.09-.67s0,.18.11.31a1.13,1.13,0,0,0,.54.36C18.49,26.64,18.13,27.05,18.31,27.22Zm1.6-4.28c-.84-.31-1.35,0-1.23.18a.51.51,0,0,0,.36.14.94.94,0,0,0,.78-.17c0,.1,0,.27.14.51s.17.17.24.17.23-.4-.29-.81h0Zm1.39-3.63h0c.48.43.57.71.4.79a.3.3,0,0,1-.28-.1.76.76,0,0,1-.26-.49.92.92,0,0,1-.7.27.47.47,0,0,1-.38-.08c-.13-.15.22-.44.91-.4a.87.87,0,0,1-.39-.52,1,1,0,0,1-.06-.35c0-.42.58.21.74.54,0-.27.22-.43.32-.39s.07.09.06.2a.66.66,0,0,1-.18.42c.44-.3.8-.24.77-.09s-.07.13-.21.2c-.52.24-.7,0-.73,0Zm0,.17c.05.11.2.19.29.44C21.5,19.67,21.35,19.59,21.3,19.48Zm-.12-.32c.05,0,.08,0,.1,0h0a.17.17,0,0,1-.1,0c-.06-.06-.09-.18-.25-.37C21.09,19,21.12,19.1,21.18,19.16Zm.1.14h0Zm6-1.64c0,.09.16.15.39.12l.28,0v-.69C27.53,17.16,27.26,17.47,27.33,17.66ZM13,20.75a1,1,0,0,1,0,.62.65.65,0,0,1-.12.33.13.13,0,0,1-.08.08c.07,0,.12.08.1.13s-.1.12-.25.16c-.54.15-.69-.1-.71-.13h0s0-.05,0-.08a.79.79,0,0,1-.58-.52c0-.13,0-.21,0-.25s.5.16.58.64c.06-.35.3-.53.41-.46s.06.09,0,.21a.65.65,0,0,1-.25.37,1,1,0,0,1,.61-.1,1.5,1.5,0,0,1-.21-.9c-.18.21-.41.26-.47.18s0-.11,0-.2a.71.71,0,0,1,.36-.27c-.53,0-.81-.2-.71-.32a.39.39,0,0,1,.29-.06c.56,0,.62.33.62.36h0c-.2-.6-.14-.9.06-.88s.14.08.19.23a.75.75,0,0,1,0,.56.88.88,0,0,1,.75.11c.18.08.27.18.28.25S13.54,21.12,13,20.75Zm-.29-.17h0Zm0,.16s0-.07-.06-.07h0S12.68,20.69,12.7,20.74Zm.06-.34a1.82,1.82,0,0,1,0-.52A1.82,1.82,0,0,0,12.76,20.4Zm14.77-1.25a1,1,0,0,1-.39-.53,1,1,0,0,1-.06-.35c0-.41.58.22.74.55a.58.58,0,0,1,.18-.35v.77a.31.31,0,0,1-.14-.09h0l.15.16v.56s0,0,0,0a.71.71,0,0,1-.25-.48,1,1,0,0,1-.71.26c-.2,0-.32,0-.37-.08S26.84,19.1,27.53,19.15Zm.3,0h0S27.84,19.13,27.83,19.13ZM27.74,19s.07,0,.09,0h0s0,0-.09,0a2.94,2.94,0,0,0-.46-.58A2.94,2.94,0,0,1,27.74,19Zm-.51,6.85c-.08,0-.1.18,0,.39A1.32,1.32,0,0,0,28,27v-.7C27.75,25.93,27.38,25.74,27.23,25.85ZM0,15.89c.27.27.58.34.7.22s.07-.2,0-.4A1.38,1.38,0,0,0,0,15.08ZM2.17,19.4a.65.65,0,0,1-.18.41c.45-.3.81-.24.78-.08s-.08.13-.22.19c-.51.24-.7,0-.72,0h0c.48.43.57.72.39.8s-.16,0-.28-.11a.71.71,0,0,1-.25-.48,1,1,0,0,1-.71.26c-.2,0-.32,0-.37-.08s0-.17.12-.25,0,0,0,0a1.3,1.3,0,0,1,.75-.11.94.94,0,0,1-.38-.53A.66.66,0,0,1,1.06,19c0-.41.58.22.73.55.05-.27.22-.43.32-.39S2.19,19.28,2.17,19.4Zm-.34.7c0,.1.2.18.29.43C2,20.28,1.88,20.2,1.83,20.1Zm-.12-.33s.07,0,.09,0h0s-.05,0-.09,0-.09-.18-.25-.37C1.62,19.59,1.64,19.72,1.71,19.77Zm.1.14h0Zm8.07.27c.14.19.27.27.38.27.31,0,.37-.65-.47-1.31h0c-1.35-.51-2.17,0-2,.28.06.11.25.2.57.23a1.52,1.52,0,0,0,1.24-.27A1,1,0,0,0,9.88,20.18Zm.53,7.72h0s0,.05,0,.09h.15A.55.55,0,0,0,10.41,27.9ZM.06,25.35A.1.1,0,0,0,0,25.28v.15S.06,25.38.06,25.35Zm1-7.84c-.16-.1-.53.14-.65.63A1.4,1.4,0,0,0,0,17.46v.86a1.09,1.09,0,0,0,.35.14s0,.08,0,.12h0c0,.05.26.45,1.14.21.24-.07.37-.16.4-.25.08-.24-.43-.46-1.21-.13a1.07,1.07,0,0,0,.36-.56C1.12,17.66,1.1,17.55,1,17.51ZM.14,18.82a.94.94,0,0,0,.24.82c.14.19.27.27.38.27.31,0,.38-.65-.47-1.31h0L0,18.49v.43ZM7,21H7s.17.28.71.13c.15,0,.23-.1.25-.16s-.29-.26-.78-.05a.65.65,0,0,0,.25-.37c0-.12,0-.18,0-.21s-.35.11-.41.46c-.08-.48-.46-.73-.58-.64s-.06.12,0,.25a.79.79,0,0,0,.58.52s0,.05,0,.08Zm.43-3.39a1.16,1.16,0,0,0,.47-1.19h0c-.9.33-1.09,1.17-.85,1.33C7.07,17.74,7.21,17.72,7.38,17.56ZM11,21.26c.1,0,.21-.08.29-.29a1.17,1.17,0,0,0-.14-1.28h0C10.45,20.4,10.67,21.23,11,21.26ZM5.64,16.53c0,.09.15.15.39.13A1.18,1.18,0,0,0,7.1,16h0C6.17,15.69,5.53,16.26,5.64,16.53ZM11,19.32c.24-.07.37-.16.4-.25.08-.24-.43-.45-1.21-.13a1.07,1.07,0,0,0,.36-.56c0-.18,0-.29,0-.33s-.53.14-.65.63c-.17-.71-.75-1.05-1-.91s-.1.18,0,.39a1.32,1.32,0,0,0,.92.85s0,.07,0,.11h0C9.9,19.17,10.14,19.56,11,19.32Z" style="fill:#797979"/></svg>