<?xml version="1.0" encoding="UTF-8"?>
<svg width="28px" height="28px" viewBox="0 0 28 28" version="1.1" xmlns="http://www.w3.org/2000/svg" xmlns:xlink="http://www.w3.org/1999/xlink">
    <title>E6EC14F2-5D31-40B8-8A17-6EE74DA8A622</title>
    <defs>
        <polygon id="path-1" points="0 0 6.8496 0 6.8496 1 0 1"></polygon>
        <polygon id="path-3" points="0 0 9.646 0 9.646 21.3379 0 21.3379"></polygon>
        <polygon id="path-5" points="0 0 12.5 0 12.5 25.0029 0 25.0029"></polygon>
    </defs>
    <g id="Forest-With-Suppression-ICON" stroke="none" fill="none">
        <g id="Forest-with-Suppression-Icon" stroke-width="1" fill-rule="evenodd">
            <polygon id="Back" fill="#FFFFFF" points="0 28 28 28 28 0 0 0"></polygon>
            <g id="Icon" transform="translate(0, 2.9971)">
                <path d="M10.6006,19.0029 C10.6436,21.1779 10.6996,23.2029 10.7496,24.9749 L10.7496,25.0029 L18.7296,25.0029 L18.7306,24.9759 C18.7796,23.2019 18.8346,21.1609 18.8746,19.0029 L10.6006,19.0029 Z" id="Fill-2" fill="#797979"></path>
                <g id="Group-6" transform="translate(0, 17.2529)">
                    <mask id="mask-2" fill="white">
                        <use xlink:href="#path-1"></use>
                    </mask>
                    <g id="Clip-5"></g>
                    <path d="M6.8496,0.25 L-0.0004,0.25 L-0.0004,0.75 L6.8376,0.75 C6.8416,0.588 6.8466,0.414 6.8496,0.25" id="Fill-4" fill="#797979" mask="url(#mask-2)"></path>
                </g>
                <path d="M10.5742,17.5029 C10.5772,17.6689 10.5792,17.8389 10.5822,18.0029 L18.8902,18.0029 C18.8922,17.8359 18.8962,17.6709 18.8982,17.5029 L10.5742,17.5029 Z" id="Fill-7" fill="#797979"></path>
                <path d="M22.3086,17.5029 C22.3126,17.6699 22.3156,17.8359 22.3186,18.0029 L27.9996,18.0029 L27.9996,17.5029 L22.3086,17.5029 Z" id="Fill-9" fill="#797979"></path>
                <path d="M22.3379,19.0029 C22.3739,21.1469 22.3889,23.2129 22.3779,25.0029 L27.9999,25.0029 C27.9989,24.3619 27.9949,19.6949 27.9999,19.0029 L22.3379,19.0029 Z" id="Fill-11" fill="#797979"></path>
                <path d="M6.8184,19.0029 L0.0004,19.0029 L0.0004,25.0029 L6.7554,25.0029 C6.7524,23.2099 6.7744,21.2099 6.8184,19.0029" id="Fill-13" fill="#797979"></path>
                <g id="Group-17" transform="translate(15.8541, 3.665)">
                    <mask id="mask-4" fill="white">
                        <use xlink:href="#path-3"></use>
                    </mask>
                    <g id="Clip-16"></g>
                    <path d="M4.474,0 C5.031,1.572 5.744,3.306 8.097,4.391 L7.86,5.236 C7.126,5.035 6.571,4.878 5.709,4.219 C6.61,5.574 7.931,6.941 9.066,6.942 C9.066,6.942 8.995,7.497 8.926,7.988 C7.972,7.941 6.679,7.327 5.765,6.497 C6.75,8.593 8.149,9.43 9.646,9.678 L9.521,10.694 C8.27,10.632 7.17,10.342 5.857,9.216 C6.4,10.664 7.177,11.658 8.705,12.144 L8.427,13.231 C7.172,12.785 6.002,11.992 5.376,10.772 C5.49,14.463 5.542,18.311 5.524,21.338 L3.876,21.338 C3.958,18.34 4.057,14.771 4.07,11.089 C3.546,11.877 2.673,12.736 1.086,13.283 L0.62,12.396 C2.25,11.836 3.402,10.061 3.762,9.049 C3.017,9.816 1.602,10.776 0.122,11.013 L0,10.071 C2.026,9.12 3.085,8.116 3.423,6.766 C2.513,7.554 1.286,8.107 0.294,8.365 L0.235,7.355 C1.511,7.024 2.913,5.837 3.566,4.18 C2.927,4.9 2.099,5.253 1.433,5.416 L1.221,4.649 C3.511,3.691 4.11,1.534 4.474,0" id="Fill-15" fill="#797979" mask="url(#mask-4)"></path>
                </g>
                <g id="Group-20" transform="translate(2.5003, 0)">
                    <mask id="mask-6" fill="white">
                        <use xlink:href="#path-5"></use>
                    </mask>
                    <g id="Clip-19"></g>
                    <path d="M6.861,0 C7.322,1.713 8.348,3.873 10.838,4.964 L10.505,6.256 C9.65,5.915 8.677,5.448 7.884,4.815 C8.844,6.687 10.358,7.858 11.919,8.263 L11.728,9.683 C10.515,9.368 9.312,8.875 8.23,8.069 C8.939,9.542 10.169,11.071 12.5,11.873 L12.049,13.181 C10.239,12.892 8.926,12.164 7.963,11.357 C8.403,12.596 9.26,14.124 11.256,14.811 L10.626,16.093 C8.684,15.425 7.673,14.46 7.032,13.496 C7.047,17.69 7.153,21.571 7.25,25.003 L5.255,25.003 C5.251,21.635 5.327,17.768 5.455,13.582 C4.201,14.705 2.47,15.846 0.785,16.19 L0.507,14.836 C2.286,14.471 3.948,12.906 4.954,11.068 C3.444,12.046 1.501,12.936 0.011,13.241 L0,11.811 C1.63,11.476 3.307,10.161 4.667,8.158 C3.605,8.975 2.365,9.542 1.127,9.542 C0.948,9.542 0.775,9.524 0.609,9.485 L0.923,8.138 C2.31,8.137 3.927,6.464 5.028,4.806 C3.974,5.612 3.003,5.937 2.106,6.184 L1.74,5.045 C4.206,3.831 6.019,1.79 6.861,0" id="Fill-18" fill="#797979" mask="url(#mask-6)"></path>
                </g>
            </g>
        </g>
        <rect id="Dark-Outline" class="dark-outline" stroke="#797979" stroke-width="1.5" fill-rule="nonzero" x="0.75" y="0.75" width="26.5" height="26.5"></rect>
        <rect id="White-Outline" class="white-outline" stroke="#FFFFFF" stroke-width="1.5" fill-rule="nonzero" x="0.75" y="0.75" width="26.5" height="26.5"></rect>
    </g>
</svg>