<svg id="Fire_Line_Highlight" data-name="Fire Line Highlight" xmlns="http://www.w3.org/2000/svg" viewBox="0 0 53 45"><title>Fire Line Highlight</title><path id="highlight" d="M44.22,45A13.68,13.68,0,0,1,38,43.39c-1.71-.88-2.72-2.43-4.41-5a32.85,32.85,0,0,0-2-2.93c-1.7-1.36-7.58-7.17-11.23-11,0,.28-.05.6-.08,1,0,0-.17,2.07-.35,4.87C9.5,31.73,1.61,25.32,0,15.53c1-.58,3.69-2.06,3.69-2.06a71.2,71.2,0,0,0,6.53-3.93,7.47,7.47,0,0,1,2.93-4.69c1.39-1.24,3.29-2.59,5.7-2.2A18.58,18.58,0,0,1,24,.5,24.08,24.08,0,0,1,35.44.93,54.17,54.17,0,0,1,41,3.16c-.65,3.52-4.37,8.54-8.37,10.4-.74-.45-2.77-1.79-2.77-1.79A4.21,4.21,0,0,0,28.24,11a.83.83,0,0,0,0,.15A25.28,25.28,0,0,1,29.76,14a21.87,21.87,0,0,0,1.14,2.18A65.63,65.63,0,0,0,36.09,22c.53.48,3.15,2.35,5.06,3.71,8.61,6.15,10.4,7.65,11.3,9.49h0a5.81,5.81,0,0,1-.1,5.14,8.46,8.46,0,0,1-5.84,4.39A11.7,11.7,0,0,1,44.22,45Z" style="fill:#fff"/></svg>