<svg id="Fire_Line" data-name="Fire Line" xmlns="http://www.w3.org/2000/svg" viewBox="0 0 53 45"><title>Fire Line</title><path id="outline" d="M44.24,41a9.81,9.81,0,0,1-4.44-1.18c-.73-.37-1.49-1.5-2.88-3.64a21.07,21.07,0,0,0-2.84-3.83c-1.7-1.27-12.23-11.83-13.42-13.44-.21-.29-.64-.83-1.18-1.49-2.6,2.83-2.95,4.09-3.2,7.71a1,1,0,0,1-1.05.93c-3.74-.18-9.09-5.12-10.07-7.88A1,1,0,0,1,5.62,17a55.53,55.53,0,0,0,9-5.76,2,2,0,0,1-.43-1.06c0-.27-.05-.85,1.64-2.33,1.38-1.21,2-1.3,2.45-1.22a2.11,2.11,0,0,1,1,.59A15.36,15.36,0,0,1,25,4.38a20,20,0,0,1,9.42.41,1.11,1.11,0,0,1,.73.85c.17,1.09-1.86,2.78-1.88,2.79a1.1,1.1,0,0,1-1.16,0,7,7,0,0,0-5.32-1.3,9.53,9.53,0,0,0-4.14,2.32c.75.82,1.79,2.06,1.79,2.7a1,1,0,0,1-.11.46l.2.2a11.84,11.84,0,0,1,1.68,2.92,20.56,20.56,0,0,0,1.54,2.84,69.89,69.89,0,0,0,5.63,6.37c.64.61,3,2.29,5.49,4.07,6.64,4.74,9.5,6.89,10,8h0a1.84,1.84,0,0,1-.1,1.62,4.51,4.51,0,0,1-3.06,2.23A7.36,7.36,0,0,1,44.24,41Z" style="fill:#797979"/><path id="handle" d="M15.17,10.09c0,.78,5.32,6.89,6.3,8.22,1.16,1.59,11.61,12,13.21,13.24s4.5,6.83,5.57,7.38a8.28,8.28,0,0,0,5.27.94C47.2,39.52,48.26,38,48,37.44c-.83-1.69-13.53-10.07-15.32-11.77a68.23,68.23,0,0,1-5.74-6.51c-1.09-1.45-2.33-4.84-3.13-5.64-2.44-2.43-5.07-5.81-5.72-5.93S15.14,9.67,15.17,10.09Z" style="fill:#cea865"/><path id="axe_head" data-name="axe head" d="M6.11,17.84c4.67-2.61,7.36-4.12,11.14-7.62,2.55-2.36,4.78-4.07,8-4.87a19,19,0,0,1,8.88.4c.32.08-1.34,1.93-1.45,1.86a7.85,7.85,0,0,0-6.07-1.46,10.84,10.84,0,0,0-5.34,3.29,12.9,12.9,0,0,1,2.18,2.71c0,.29-3.32,3.16-4.3,4.19-3,3.23-3.54,4.62-3.83,8.72C12.11,24.91,7,20.4,6.11,17.84Z" style="fill:#e21e1e"/><path id="axe_blade" data-name="axe blade" d="M11.08,15c-1.46.92-3.05,1.81-5,2.88.91,2.56,6,7.07,9.17,7.22v0Z" style="fill:#bcbcbc"/></svg>