<svg id="helitack_highlight" data-name="helitack highlight" xmlns="http://www.w3.org/2000/svg" viewBox="0 0 53 45"><title>Helitack Highlight</title><path id="helitack_highlight-2" data-name="helitack highlight" d="M38.43,45a3.93,3.93,0,0,1-2.5-.88l-6.62-5.31a4,4,0,0,1-1.48-2.76H9.38A7.43,7.43,0,0,1,2,30a5.49,5.49,0,0,1,.35-3.11A7.35,7.35,0,0,1,0,22.05a6.29,6.29,0,0,1,1.63-4.54,3.61,3.61,0,0,1,.25-.3h0a11.07,11.07,0,0,1,1.76-1.5,14.54,14.54,0,0,1,3-4.27H4.39A4,4,0,0,1,1,5.36l1.84-3A4,4,0,0,1,6.22.44H19A5.91,5.91,0,0,1,21.26,0h4a5.91,5.91,0,0,1,2.23.44h14a4,4,0,0,1,3.07,1.43,4.52,4.52,0,0,1,2.1,0l2.9.74h0a4.61,4.61,0,0,1,3.32,5.53L51.34,15l1,3.53a4,4,0,0,1-.24,2.87l-.13.27c-.06.12-.12.24-.19.36a4.61,4.61,0,0,1-3.15,2.12l-2.2.4a4.64,4.64,0,0,1-4.83-2.26l-.86-1.48-2.27.44a13,13,0,0,1-1.62,2.87L38.51,26a4,4,0,0,1,2.64-.12,4,4,0,0,1,2.6,2.41l3.06,8.07a4,4,0,0,1-1.47,4.71l-4.63,3.21A4.06,4.06,0,0,1,38.43,45Zm10.1-26.79,0,.06A.21.21,0,0,1,48.53,18.21ZM45.08,6.35s0,.06,0,.09Z" transform="translate(0)" style="fill:#fff"/></svg>