<svg id="helitack_icon" data-name="helitack icon" xmlns="http://www.w3.org/2000/svg" viewBox="0 0 53 45"><title>Helitack</title><rect id="line_2" data-name="line 2" x="35.96" y="21.72" width="1" height="17.7" transform="translate(-11.12 30.66) rotate(-40.08)" style="fill:#797979"/><rect id="line_1" data-name="line 1" x="32.92" y="22.87" width="1" height="18.58" transform="translate(-12.11 23.33) rotate(-32.93)" style="fill:#797979"/><polygon id="bucket" points="39.77 30.51 32.64 35.71 38.45 40.38 42.46 37.6 39.77 30.51" style="fill:#aaa"/><path id="bucket_outline" data-name="bucket outline" d="M38.43,41l-6.62-5.31,8.2-6,3.06,8.07Zm-5-5.27,5,4,3.38-2.34L39.54,31.3Z" style="fill:#797979"/><polygon id="rotor" points="5.28 6.94 6.5 4.94 40.58 4.94 39.36 6.94 5.28 6.94" style="fill:#b3b3b3"/><path id="rotor_outline" data-name="rotor outline" d="M39.69,5.44l-.61,1H6.17l.61-1H39.69m1.78-1H6.22l-.29.48-.61,1L4.39,7.44H39.64L39.93,7l.61-1,.93-1.52Z" style="fill:#797979"/><rect id="rotor_mast" data-name="rotor mast" x="22.24" y="5.6" width="2" height="5.22" style="fill:#b3b3b3"/><path id="rotor_mast_outline" data-name="rotor mast outline" d="M24.74,11.33h-3V5.1h3Zm-2-1h1V6.1h-1Z" style="fill:#797979"/><path id="rotor_mast_top" data-name="rotor mast top" d="M25.23,7.33h-4a1.37,1.37,0,0,1,0-2.73h4a1.37,1.37,0,0,1,0,2.73Z" style="fill:#f9c139"/><path id="rotor_mast_top_outline" data-name="rotor mast top outline" d="M25.23,7.93h-4a2,2,0,1,1,0-3.93h4a2,2,0,1,1,0,3.93Zm-4-2.72a.76.76,0,1,0,0,1.51h4a.76.76,0,0,0,0-1.51Z" style="fill:#797979"/><path id="skid" d="M31.73,29a.49.49,0,0,0-.5-.47h0a.51.51,0,0,0-.49.51,1.1,1.1,0,0,1-.28.73,1.32,1.32,0,0,1-1,.32H26.84l-1.71-6.41-1,.26,1.64,6.15H12.7L11,23.61l-1,.26,1.65,6.18H9.38A1.39,1.39,0,0,1,7.9,29a.5.5,0,0,0-1,.18,2.39,2.39,0,0,0,2.46,1.9h20.1a2.25,2.25,0,0,0,1.7-.64A2.1,2.1,0,0,0,31.73,29Z" style="fill:#f9c139"/><path id="skid_outline" data-name="skid outline" d="M11,23.61l1.72,6.44H25.8L24.16,23.9l1-.26,1.71,6.41h2.64a1.32,1.32,0,0,0,1-.32,1.1,1.1,0,0,0,.28-.73.51.51,0,0,1,.49-.51h0a.49.49,0,0,1,.5.47,2.1,2.1,0,0,1-.55,1.45,2.25,2.25,0,0,1-1.7.64H9.38a2.39,2.39,0,0,1-2.46-1.9.5.5,0,0,1,.4-.58H7.4a.51.51,0,0,1,.5.41,1.39,1.39,0,0,0,1.48,1.08h2.28L10,23.87l1-.26m.7-1.22-1,.26-1,.25-1,.26.26,1,1.32,4.92h-1c-.12,0-.43,0-.5-.29a1.5,1.5,0,0,0-1.48-1.2l-.25,0a1.51,1.51,0,0,0-1.22,1.74,3.39,3.39,0,0,0,3.45,2.73h20.1a3.26,3.26,0,0,0,2.42-.94,3.09,3.09,0,0,0,.83-2.18,1.49,1.49,0,0,0-1.5-1.44A1.52,1.52,0,0,0,29.73,29h0a1,1,0,0,1-.25,0H27.61l-1.52-5.67-.25-1-1,.26-1,.25-1,.26.25,1,1.31,4.89h-11l-1.52-5.7-.26-1Z" style="fill:#797979"/><path id="copter_body" data-name="copter body" d="M43.64,12.33l-8,.56S31.5,9.46,30.54,9.46l-12.9.08c-.63,0-2,2.05-2.61,2.8h5.78l-2.23,7.94H5.19a2.08,2.08,0,0,0-.69,1.48c.12,1.82,1.91,3.1,5,3.1H24.21c4.14,0,6.53-1,8.38-2.71A9.87,9.87,0,0,0,35,17.32l8.72-1.71Zm-16.56,8h-6l2.23-7.94h6Z" style="fill:#f77b0b"/><path id="copter_body_outline" data-name="copter body outline" d="M24.21,25.36H9.46C6.24,25.36,4.15,24,4,21.8a2.51,2.51,0,0,1,.83-1.86.48.48,0,0,1,.36-.16h13l1.95-6.94H15a.5.5,0,0,1-.45-.28.51.51,0,0,1,.06-.53l.38-.51C16.28,9.84,17,9,17.64,9L24.9,9l5.64,0c1,0,3.9,2.3,5.26,3.42l7.8-.55A.5.5,0,0,1,44,12a.53.53,0,0,1,.17.36l.09,3.28a.49.49,0,0,1-.4.5l-8.4,1.65a9.89,9.89,0,0,1-2.5,4.77C30.76,24.48,28.07,25.36,24.21,25.36ZM5.42,20.78a1.39,1.39,0,0,0-.42.95c.11,1.62,1.82,2.63,4.46,2.63H24.21c3.64,0,6.05-.77,8-2.58a9.38,9.38,0,0,0,2.27-4.55.49.49,0,0,1,.39-.4l8.31-1.63-.07-2.33-7.48.52a.48.48,0,0,1-.35-.11C33.43,11.71,31.06,10,30.54,10l-5.63,0-7.27,0A8.72,8.72,0,0,0,16,11.84h4.78a.48.48,0,0,1,.4.2.46.46,0,0,1,.08.44l-2.23,7.94a.5.5,0,0,1-.48.36Zm21.66,0h-6a.48.48,0,0,1-.4-.2.46.46,0,0,1-.08-.44l2.23-7.93a.5.5,0,0,1,.48-.37h6a.48.48,0,0,1,.4.2.46.46,0,0,1,.08.44l-2.23,7.94A.5.5,0,0,1,27.08,20.78Zm-5.34-1h5l1.95-6.94h-5Z" style="fill:#797979"/><path id="windshield" d="M20.81,12.34H15c-3.87,0-6.91,3.51-7.71,6.4a8.75,8.75,0,0,0-2.14,1.54h13.4Z" style="fill:#3594bf;opacity:0.5"/><path id="windshield_outline" data-name="windshield outline" d="M18.58,20.78H5.18a.51.51,0,0,1-.46-.3.49.49,0,0,1,.1-.54A8.62,8.62,0,0,1,6.9,18.4c1-3.26,4.26-6.56,8.13-6.56h5.78a.48.48,0,0,1,.4.2.46.46,0,0,1,.08.44l-2.23,7.94A.5.5,0,0,1,18.58,20.78Zm-12-1H18.2l1.95-6.94H15c-3.43,0-6.42,3.13-7.23,6a.45.45,0,0,1-.24.31C7.19,19.38,6.86,19.58,6.56,19.78Z" style="fill:#797979"/><polygon id="window" points="23.31 12.34 21.08 20.28 27.08 20.28 29.31 12.34 23.31 12.34" style="fill:#3594bf;opacity:0.5"/><path id="window_outline" data-name="window outline" d="M27.08,20.78h-6a.48.48,0,0,1-.4-.2.46.46,0,0,1-.08-.44l2.23-7.94a.5.5,0,0,1,.48-.36h6a.48.48,0,0,1,.4.2.52.52,0,0,1,.08.44l-2.23,7.94A.5.5,0,0,1,27.08,20.78Zm-5.34-1h5l1.95-6.94h-5Z" style="fill:#797979"/><path id="tail" d="M45.44,6.32l-2.58,6,.1,3.28L45.55,20a.09.09,0,0,0,.1.05l2.26-.41a.1.1,0,0,0,.08-.13l-1.3-4.44,1.81-8A.1.1,0,0,0,48.42,7l-2.87-.73A.09.09,0,0,0,45.44,6.32Z" style="fill:#f9c139"/><path id="tail_outline" data-name="tail outline" d="M45.63,20.59a.6.6,0,0,1-.52-.3l-2.65-4.54-.1-3.51L45,6.12a.6.6,0,0,1,.69-.34l2.88.73a.59.59,0,0,1,.43.72L47.21,15.1l1.32,4.53-.13.27a.62.62,0,0,1-.4.27l-2.26.41Zm.34-.81h0Zm-.41-.18Zm-2.1-4.13,2.38,4.08,1.54-.28-1.21-4.14,1.75-7.74-2.16-.56-2.39,5.6ZM48,7h0Z" style="fill:#797979"/></svg>