<svg id="helitack_icon_disabled" data-name="helitack icon disabled" xmlns="http://www.w3.org/2000/svg" viewBox="0 0 53 45"><title>Helitack Disabled</title><path d="M48.55,6.51l-2.88-.73a.6.6,0,0,0-.69.34L42.5,11.91l-6.7.47C34.44,11.26,31.53,9,30.54,9L24.9,9h-.16V7.93h.49a2,2,0,0,0,1.29-.49H39.64L39.93,7l.61-1,.93-1.52h-15A1.94,1.94,0,0,0,25.23,4h-4A1.94,1.94,0,0,0,20,4.44H6.22l-.29.48-.61,1L4.39,7.44H20a2,2,0,0,0,1.29.49h.48V9l-4.1,0c-.65,0-1.36.8-2.62,2.48l-.25.33C11,12,7.88,15.21,6.9,18.4a8.62,8.62,0,0,0-2.08,1.54s0,0,0,0A2.46,2.46,0,0,0,4,21.8c.14,2.17,2.2,3.53,5.37,3.56l1,3.69h-1c-.12,0-.43,0-.5-.29a1.5,1.5,0,0,0-1.48-1.2l-.25,0a1.51,1.51,0,0,0-1.22,1.74,3.39,3.39,0,0,0,3.45,2.73h20.1a3.26,3.26,0,0,0,2.42-.94l.14-.17,2,3.12-2.24,1.63L38.43,41l4.64-3.21L40,29.72l-2.24,1.63L31.33,23.7a10.64,10.64,0,0,0,1.6-1.18,9.89,9.89,0,0,0,2.5-4.77l7.36-1.44,2.32,4a.6.6,0,0,0,.52.3h.11L48,20.17a.62.62,0,0,0,.4-.27l.13-.27L47.21,15.1,49,7.23A.59.59,0,0,0,48.55,6.51ZM7.32,28.57h.15A.38.38,0,0,0,7.32,28.57ZM23.69,12.84h5L26.7,19.78h-5ZM6.56,19.78c.3-.2.63-.4,1-.6a.45.45,0,0,0,.24-.31c.81-2.9,3.8-6,7.23-6h5.12L18.2,19.78Zm6.9,9.27-1-3.69h11l1,3.69Zm16.27,0h0a1,1,0,0,1-.25,0H27.61l-1-3.83A15.12,15.12,0,0,0,28.16,25l2,3A1.49,1.49,0,0,0,29.73,29ZM37,31.94l-2.1,1.53L32.58,30a3.22,3.22,0,0,0,.15-1,1.49,1.49,0,0,0-1.5-1.44.78.78,0,0,0-.22,0l-1.84-2.84a10,10,0,0,0,1.26-.5Z" style="fill:#797979"/><polygon points="21.74 19.78 26.7 19.78 28.65 12.84 23.69 12.84 21.74 19.78" style="fill:#999"/><path d="M6.56,19.78H18.2l1.95-6.94H15c-3.43,0-6.42,3.13-7.23,6a.45.45,0,0,1-.24.31C7.19,19.38,6.86,19.58,6.56,19.78Z" style="fill:#999"/></svg>