<svg id="Spark_Disabled" data-name="Spark Disabled" xmlns="http://www.w3.org/2000/svg" viewBox="0 0 36 48"><title>Spark Disabled</title><path id="Spark_outer" data-name="Spark outer" d="M24.51,15.53c-2.62-2.47-5.34-5-7.23-9L17,6l-.49.32c-.25.16-6.1,4.14-3.74,14.36-.46-.15-1.18-.63-1.89-2l-.39-.6-.49.55c-2.83,3.17-6,6.76-6,13.62C4,37.88,9.09,44,17.32,44,27.46,44,32,36.86,32,29.78S28.36,19.15,24.51,15.53ZM17.32,41.94c-3.21,0-8.08-3.1-8.08-7.67,0-4.35,2.65-6.06,1.84-9.78,0,0,3.53,1.36,4.51,4.43,0,0,4-3.32,1.89-11.28,0,0,9.17,2.85,9.17,14C26.65,38.46,21.54,41.94,17.32,41.94Z" style="fill:#797979"/><path id="Spark_inner" data-name="Spark inner" d="M11.08,24.49c.81,3.72-1.84,5.43-1.84,9.78,0,4.57,4.87,7.67,8.08,7.67,4.22,0,9.33-3.48,9.33-10.31,0-11.14-9.17-14-9.17-14,2.11,8-1.89,11.28-1.89,11.28C14.61,25.85,11.08,24.49,11.08,24.49Z" style="fill:#a0a0a0"/></svg>