<svg id="Spark" xmlns="http://www.w3.org/2000/svg" viewBox="0 0 36 48"><title>Spark</title><path id="Spark_outer" data-name="Spark outer" d="M31.5,29.78c0,9.55-7.3,13.72-14.18,13.72C10.81,43.5,4.5,38.81,4.5,32.21s3.18-10.23,6-13.35c1.42,2.8,3,2.36,3,2.36-2.72-10.5,3.37-14.49,3.37-14.49C21.58,16.73,31.5,18,31.5,29.78Z" style="fill:#ff4800"/><path id="Spark_inner" data-name="Spark inner" d="M11.08,24.49c.81,3.72-1.84,5.43-1.84,9.78,0,4.57,4.87,7.67,8.08,7.67,4.22,0,9.33-3.48,9.33-10.31,0-11.14-9.17-14-9.17-14,2.11,8-1.89,11.28-1.89,11.28C14.61,25.85,11.08,24.49,11.08,24.49Z" style="fill:#ffe000"/><path id="Spark_outline" data-name="Spark outline" d="M17.32,44C9.09,44,4,37.88,4,32.21c0-6.86,3.21-10.45,6-13.62l.49-.55.39.6c.71,1.41,1.43,1.89,1.89,2C10.45,10.46,16.3,6.48,16.55,6.32L17,6l.24.52c1.89,4,4.61,6.54,7.23,9,3.85,3.62,7.49,7,7.49,14.25S27.46,44,17.32,44ZM10.38,19.72C7.74,22.68,5,26.09,5,32.21,5,38.67,11.37,43,17.32,43,24.13,43,31,38.92,31,29.78c0-6.79-3.32-9.91-7.17-13.53-2.57-2.42-5.23-4.92-7.18-8.75-1.32,1.16-4.88,5.18-2.71,13.59l.13.48-.47.13C13.52,21.72,11.88,22.14,10.38,19.72Z" style="fill:#797979"/></svg>