<svg id="Terrain_Setup" data-name="Terrain Setup" xmlns="http://www.w3.org/2000/svg" viewBox="0 0 62 44"><title>Terrain Setup</title><rect id="back" x="4" y="4" width="54" height="36" rx="3" style="fill:#797979"/><path id="Zone_2" data-name="Zone 2" d="M31,5H55a2,2,0,0,1,2,2V37a2,2,0,0,1-2,2H31a0,0,0,0,1,0,0V5A0,0,0,0,1,31,5Z" style="fill:#d6ecff"/><path id="Zone_1" data-name="Zone 1" d="M7,5H31a0,0,0,0,1,0,0V39a0,0,0,0,1,0,0H7a2,2,0,0,1-2-2V7A2,2,0,0,1,7,5Z" style="fill:#ffd8fa"/><path id="dashed_line" data-name="dashed line" d="M31.5,7.5h-1V6h1Zm0,23.63h-1v3.22h1Zm0-5.37h-1V29h1Zm0-5.37h-1v3.22h1Zm0-5.37h-1v3.22h1Zm0-5.37h-1v3.22h1Zm0,26.85h-1V38h1Z" style="fill:#797979"/></svg>
