<svg id="Fire_Line_Disabled" data-name="Fire Line Disabled" xmlns="http://www.w3.org/2000/svg" viewBox="0 0 53 45"><title>Fire Line Disabled</title><path id="axe" d="M48.88,37h0c-.54-1.1-3.4-3.25-10-8-2.49-1.78-4.85-3.46-5.49-4.07a69.89,69.89,0,0,1-5.63-6.37,20.56,20.56,0,0,1-1.54-2.84,11.84,11.84,0,0,0-1.68-2.92l-.2-.2a1,1,0,0,0,.11-.46c0-.64-1-1.88-1.79-2.7a9.53,9.53,0,0,1,4.14-2.32,7,7,0,0,1,5.32,1.3,1.1,1.1,0,0,0,1.16,0s2-1.7,1.88-2.79a1.11,1.11,0,0,0-.73-.85A20,20,0,0,0,25,4.38a15.36,15.36,0,0,0-5.71,2.81,2.11,2.11,0,0,0-1-.59c-.44-.08-1.07,0-2.45,1.22-1.69,1.48-1.66,2.06-1.64,2.33a2,2,0,0,0,.43,1.06,55.53,55.53,0,0,1-9,5.76,1,1,0,0,0-.46,1.21c1,2.76,6.33,7.7,10.07,7.88a1,1,0,0,0,1.05-.93c.25-3.62.6-4.88,3.2-7.71.54.66,1,1.2,1.18,1.49,1.19,1.61,11.72,12.17,13.42,13.44a21.07,21.07,0,0,1,2.84,3.83c1.39,2.14,2.15,3.27,2.88,3.64A9.81,9.81,0,0,0,44.24,41a7.36,7.36,0,0,0,1.48-.15,4.51,4.51,0,0,0,3.06-2.23A1.84,1.84,0,0,0,48.88,37Z" style="fill:#797979"/></svg>