<svg id="Layer_1" data-name="Layer 1" xmlns="http://www.w3.org/2000/svg" viewBox="0 0 24 24"><defs><style>.cls-1{fill:none;}.cls-2{fill:#fff;}.cls-3{fill:#797979;}</style></defs><path class="cls-1" d="M0,0H24V24H0Z"/><path class="cls-2" d="M18,7.5v-1a6,6,0,0,0-12,0v1a3.00335,3.00335,0,0,0-3,3v10a3.00335,3.00335,0,0,0,3,3H18a3.00335,3.00335,0,0,0,3-3v-10A3.00335,3.00335,0,0,0,18,7.5Zm-3.9,0H9.9v-1a2.1,2.1,0,0,1,4.2,0Z"/><path class="cls-3" d="M18,8.5H17v-2a5,5,0,0,0-10,0v2H6a2.00588,2.00588,0,0,0-2,2v10a2.00588,2.00588,0,0,0,2,2H18a2.00588,2.00588,0,0,0,2-2v-10A2.00588,2.00588,0,0,0,18,8.5Zm-6,9a2,2,0,1,1,2-2A2.00588,2.00588,0,0,1,12,17.5Zm3.1-9H8.9v-2a3.1,3.1,0,0,1,6.2,0Z"/></svg>