<?xml version="1.0" encoding="UTF-8"?>
<svg width="24px" height="24px" viewBox="0 0 24 24" version="1.1" xmlns="http://www.w3.org/2000/svg" xmlns:xlink="http://www.w3.org/1999/xlink">
    <title>3C16542D-9171-4309-B1DD-DB30D8679CC7</title>
    <defs>
        <path d="M0,0 L24,0 L24,24 L0,24 L0,0 Z" id="path-1"></path>
    </defs>
    <g id="Setup-Close-ICON" stroke="none" fill="none" xlink:href="#path-1">
        <rect id="Rectangle" fill-rule="nonzero" x="0" y="0" width="24" height="24"></rect>
        <path d="M14.2745333,12 L17.6860093,8.58852273 C18.1046796,8.16988636 18.1046796,7.49113636 17.6860093,7.07215909 L16.9278277,6.31397727 C16.5091915,5.89534091 15.8304759,5.89534091 15.4114988,6.31397727 L11.999991,9.72545455 L8.58851274,6.31397727 C8.16987654,5.89534091 7.49116089,5.89534091 7.07214968,6.31397727 L6.31396815,7.07215909 C5.89533195,7.49079545 5.89533195,8.16954545 6.31396815,8.58852273 L9.72544413,12 L6.31396815,15.4114773 C5.89533195,15.8301136 5.89533195,16.5088636 6.31396815,16.9278409 L7.07214968,17.6860227 C7.49078589,18.1046591 8.16987654,18.1046591 8.58851274,17.6860227 L11.999991,14.2745455 L15.4114988,17.6860227 C15.8301009,18.1046591 16.5091915,18.1046591 16.9278277,17.6860227 L17.6860093,16.9278409 C18.1046796,16.5092045 18.1046796,15.8304545 17.6860093,15.4114773 L14.2745333,12 Z" id="Close-Button" fill="currentColor" fill-rule="evenodd"></path>
    </g>
</svg>