<svg id="Spark" xmlns="http://www.w3.org/2000/svg" viewBox="0 0 27 37"><title>spark</title><path id="outer" data-name="outer" d="M27,23.2C27,32.8,19.7,37,12.82,37,6.31,37,0,32.28,0,25.63S3.18,15.34,6,12.21C7.39,15,9,14.58,9,14.58,6.24,4,12.33,0,12.33,0,17.07,10.07,27,11.32,27,23.2Z" stroke-width="1" stroke="#797979" fill="#ff4800" /><path id="inner" data-name="inner" d="M6.58,17.87c.81,3.75-1.84,5.46-1.84,9.84,0,4.6,4.87,7.72,8.08,7.72,4.22,0,9.33-3.51,9.33-10.38C22.15,13.84,13,11,13,11c2.11,8-1.89,11.34-1.89,11.34C10.11,19.24,6.58,17.87,6.58,17.87Z" stroke-width="0" fill="#ffe000" /></svg>
