<svg id="Wind_Direction_and_Speed" data-name="Wind Direction and Speed" xmlns="http://www.w3.org/2000/svg" viewBox="0 0 70 70"><title>Wind Direction and Speed</title><circle id="outline" cx="35" cy="35" r="35" style="fill:#4aa9ff"/><circle id="dial" cx="35" cy="35" r="33.65" style="fill:#fff"/><g id="minor_ticks" data-name="minor ticks"><path id="NWN_tick" data-name="NWN tick" d="M23.78,6.15l-.52-1.26L22,5.41l.52,1.25C22.94,6.48,23.36,6.31,23.78,6.15Z" style="fill:#979797"/><path id="WNW_tick" data-name="WNW tick" d="M6.66,22.53,5.41,22l-.52,1.25,1.26.52C6.31,23.36,6.48,22.94,6.66,22.53Z" style="fill:#979797"/><path id="WSW_tick" data-name="WSW tick" d="M6.15,46.22l-1.26.52L5.41,48l1.25-.52C6.48,47.06,6.31,46.64,6.15,46.22Z" style="fill:#979797"/><path id="SSW_tick" data-name="SSW tick" d="M22.53,63.34,22,64.59l1.25.52.52-1.26C23.36,63.69,22.94,63.52,22.53,63.34Z" style="fill:#979797"/><path id="SSE_tick" data-name="SSE tick" d="M46.22,63.85l.52,1.26L48,64.59l-.52-1.25C47.06,63.52,46.64,63.69,46.22,63.85Z" style="fill:#979797"/><path id="ESE_tick" data-name="ESE tick" d="M63.34,47.47l1.25.52.52-1.25-1.26-.52C63.69,46.64,63.52,47.06,63.34,47.47Z" style="fill:#979797"/><path id="ENE_tick" data-name="ENE tick" d="M63.85,23.78l1.26-.52L64.59,22l-1.25.52C63.52,22.94,63.69,23.36,63.85,23.78Z" style="fill:#979797"/><path id="NNE_tick" data-name="NNE tick" d="M47.47,6.66,48,5.41l-1.25-.52-.52,1.26C46.64,6.31,47.06,6.48,47.47,6.66Z" style="fill:#979797"/></g><g id="major_ticks" data-name="major ticks"><path id="NW_tick" data-name="NW tick" d="M14.31,12.89,12.63,11.2,11.2,12.63l1.69,1.68C13.35,13.82,13.82,13.35,14.31,12.89Z" style="fill:#797979"/><path id="SW_tick" data-name="SW tick" d="M12.89,55.69,11.2,57.37l1.43,1.43,1.68-1.69C13.82,56.65,13.35,56.18,12.89,55.69Z" style="fill:#797979"/><path id="SE_tick" data-name="SE tick" d="M55.69,57.11l1.68,1.69,1.43-1.43-1.69-1.68C56.65,56.18,56.18,56.65,55.69,57.11Z" style="fill:#797979"/><path id="NE_tick" data-name="NE tick" d="M57.11,14.31l1.69-1.68L57.37,11.2l-1.68,1.69C56.18,13.35,56.65,13.82,57.11,14.31Z" style="fill:#797979"/></g><path id="W" d="M3.3,30.62H4.6a.59.59,0,0,1,.33.1.45.45,0,0,1,.18.25l1.41,5c0,.12.06.26.09.4s.06.29.08.45c0-.16.07-.31.1-.45s.08-.28.12-.4l1.63-5a.63.63,0,0,1,.18-.24.52.52,0,0,1,.33-.11H9.5a.59.59,0,0,1,.33.1A.45.45,0,0,1,10,31l1.62,5a7.94,7.94,0,0,1,.21.81l.09-.42a3.75,3.75,0,0,1,.09-.39l1.4-5a.51.51,0,0,1,.18-.24.52.52,0,0,1,.33-.11h1.21L12.57,38.9H11.18L9.37,33.24c0-.07,0-.15-.07-.23s-.05-.17-.07-.27c0,.1-.05.19-.07.27s-.05.16-.07.23L7.26,38.9H5.87Z" style="fill:#797979"/><path id="S" d="M37.2,60.31a.36.36,0,0,1-.15.17.31.31,0,0,1-.19.06.51.51,0,0,1-.26-.09l-.34-.2a3.18,3.18,0,0,0-.45-.2,1.93,1.93,0,0,0-.62-.09,1.89,1.89,0,0,0-.56.08,1.11,1.11,0,0,0-.4.22.78.78,0,0,0-.24.33,1.08,1.08,0,0,0-.08.42.71.71,0,0,0,.16.48,1.37,1.37,0,0,0,.44.33,3.51,3.51,0,0,0,.61.25l.7.23a6.07,6.07,0,0,1,.7.29,2.33,2.33,0,0,1,.61.41,1.69,1.69,0,0,1,.43.61,2.08,2.08,0,0,1,.17.87,2.77,2.77,0,0,1-.2,1,2.33,2.33,0,0,1-.56.86,2.57,2.57,0,0,1-.9.57,3.27,3.27,0,0,1-1.21.21,4,4,0,0,1-.78-.08,4.24,4.24,0,0,1-.74-.22,5.13,5.13,0,0,1-.66-.34,4,4,0,0,1-.54-.45l.44-.74a.87.87,0,0,1,.15-.13.36.36,0,0,1,.2-.06.53.53,0,0,1,.31.12l.39.26a2.91,2.91,0,0,0,.53.26,2,2,0,0,0,.74.12,1.55,1.55,0,0,0,1-.31,1.13,1.13,0,0,0,.36-.9.77.77,0,0,0-.17-.53,1.27,1.27,0,0,0-.43-.35,3.1,3.1,0,0,0-.61-.23l-.7-.22a5,5,0,0,1-.7-.27,2.55,2.55,0,0,1-.61-.42,1.85,1.85,0,0,1-.43-.64,2.47,2.47,0,0,1-.16-1,2.27,2.27,0,0,1,.18-.88,2.18,2.18,0,0,1,.53-.76,2.56,2.56,0,0,1,.84-.53,3.2,3.2,0,0,1,1.16-.2,3.89,3.89,0,0,1,1.34.23,3,3,0,0,1,1.06.64Z" style="fill:#797979"/><path id="E" d="M66.63,30.62v1.23H63v2.29h2.89v1.19H63v2.34h3.67V38.9H61.41V30.62Z" style="fill:#797979"/><path id="N" d="M32.49,3.51l.12,0a.34.34,0,0,1,.11.07l.11.13,4.34,5.53,0-.39c0-.13,0-.25,0-.36v-5h1.36v8.28h-.8a.67.67,0,0,1-.3-.06.64.64,0,0,1-.23-.21L32.83,6l0,.37c0,.12,0,.23,0,.33v5.08H31.51V3.5h1Z" style="fill:#797979"/></svg>