<svg id="Wind_Symbol" data-name="Wind Symbol" xmlns="http://www.w3.org/2000/svg" xmlns:xlink="http://www.w3.org/1999/xlink" viewBox="0 0 32 30"><defs><linearGradient id="linear-gradient" x1="227.07" y1="168.07" x2="249.1" y2="168.07" gradientTransform="translate(-143.98 257.03) rotate(-90)" gradientUnits="userSpaceOnUse"><stop offset="0" stop-color="#fff" stop-opacity="0"/><stop offset="0.42" stop-color="#fff"/></linearGradient><linearGradient id="linear-gradient-2" x1="228.38" y1="195.06" x2="257.39" y2="195.06" gradientTransform="matrix(-0.13, -0.99, 0.99, -0.13, -141.41, 281.58)" gradientUnits="userSpaceOnUse"><stop offset="0" stop-color="#fff" stop-opacity="0"/><stop offset="0.35" stop-color="#fff"/></linearGradient><linearGradient id="linear-gradient-3" x1="227.03" y1="153.35" x2="250.87" y2="153.35" gradientTransform="translate(-143.98 257.03) rotate(-90)" gradientUnits="userSpaceOnUse"><stop offset="0" stop-color="#fff" stop-opacity="0"/><stop offset="0.42" stop-color="#fff"/></linearGradient></defs><title>Wind Symbol</title><path id="wind_curl_right" data-name="wind curl right" d="M16.19,30c.06-.45.09-.94.14-1.42l.11-1.47c.07-1,.15-1.95.25-2.93a55.93,55.93,0,0,1,.81-5.87c.09-.49.2-1,.32-1.46s.25-1,.4-1.46a16,16,0,0,1,1.16-2.87,8.58,8.58,0,0,1,2.06-2.55,6.36,6.36,0,0,1,3.15-1.39A6.18,6.18,0,0,1,28,9a6.84,6.84,0,0,1,2.7,2.15A6.13,6.13,0,0,1,32,14.51a5.2,5.2,0,0,1-.22,1.84A5.41,5.41,0,0,1,31,18a6.13,6.13,0,0,1-1.23,1.26,5.05,5.05,0,0,1-1.61.84,4.37,4.37,0,0,1-1.83.17,4.22,4.22,0,0,1-1.7-.6,3.93,3.93,0,0,1-1.25-1.25,3.17,3.17,0,0,1-.48-1.66,3,3,0,0,1,.45-1.57,3.49,3.49,0,0,1,1.06-1.07,4.16,4.16,0,0,0-.57,1.28,2.4,2.4,0,0,0,0,1.25,2.46,2.46,0,0,0,1.53,1.58,2.74,2.74,0,0,0,2.07-.09,3.47,3.47,0,0,0,.88-.61,4.79,4.79,0,0,0,.7-.86,3.33,3.33,0,0,0,.5-2,4.1,4.1,0,0,0-.75-2A4.58,4.58,0,0,0,27,11.17a3.8,3.8,0,0,0-2.16-.42,4.23,4.23,0,0,0-2.08.88,6.86,6.86,0,0,0-1.58,1.89,15,15,0,0,0-1.72,5.12c-.15.92-.26,1.85-.32,2.78s-.08,1.88-.07,2.82.05,1.89.12,2.84c0,.47.09,1,.13,1.42L19.53,30Z" style="fill:url(#linear-gradient)"/><path id="wind_curl_mid" data-name="wind curl mid" d="M16,29.62c-.34-4.5.13-7.52-.08-11.82-.13-2.66-.84-5.66-1.16-8a20.08,20.08,0,0,1-.13-4.86c.05-.24.09-.48.14-.71l.08-.36c0-.12.07-.24.11-.36a5.93,5.93,0,0,1,.64-1.44A4.69,4.69,0,0,1,16.7.82,4,4,0,0,1,18.27.09a3.91,3.91,0,0,1,3.27.75,3.5,3.5,0,0,1,1,1.37,3.14,3.14,0,0,1,.21,1.68,3.75,3.75,0,0,1-.57,1.48A2.51,2.51,0,0,1,21,6.43a2.08,2.08,0,0,1-1.59-.06,2.17,2.17,0,0,1-1.08-1,1.9,1.9,0,0,1-.08-1.44A2.75,2.75,0,0,1,19,2.76a2.67,2.67,0,0,0-.6,1.17,1.53,1.53,0,0,0,.23,1.19,1.64,1.64,0,0,0,.94.68,1.33,1.33,0,0,0,1.06-.11,1.66,1.66,0,0,0,.67-.8,2.61,2.61,0,0,0,.24-1.1,1.87,1.87,0,0,0-.29-1,2.14,2.14,0,0,0-.7-.67,2.46,2.46,0,0,0-1.9-.3,2.75,2.75,0,0,0-1.57,1.19,5,5,0,0,0-.51,1c0,.09-.06.19-.1.28l-.08.3c-.06.2-.11.41-.16.62a17.18,17.18,0,0,0-.1,4.64c.17,2.45.71,4.46.75,7.49C16.94,20,16.07,24.74,16,29.62Z" style="fill:url(#linear-gradient-2)"/><path id="wind_curl_left" data-name="wind curl left" d="M13.48,29.92c.06-.9.11-1.79.15-2.68s0-1.79.06-2.68c0-1.78,0-3.56-.18-5.33-.08-.88-.17-1.76-.3-2.63s-.3-1.72-.5-2.56a16.7,16.7,0,0,0-.78-2.42,7.2,7.2,0,0,0-1.19-2,4,4,0,0,0-.37-.35,1.33,1.33,0,0,0-.19-.14l-.1-.07L10,9a4.52,4.52,0,0,0-1-.42,2.65,2.65,0,0,0-1.81.12A3.25,3.25,0,0,0,5.76,10a3.46,3.46,0,0,0-.52,2,3,3,0,0,0,.81,1.93,1.83,1.83,0,0,0,1.81.67A1.81,1.81,0,0,0,9.23,13,2,2,0,0,0,9,11.84a3.73,3.73,0,0,0-.87-1,3.41,3.41,0,0,1,1.11.82,2.47,2.47,0,0,1,.4.61,2.09,2.09,0,0,1,.2.73,2.39,2.39,0,0,1-.37,1.51,2.69,2.69,0,0,1-2.89,1.2A3.36,3.36,0,0,1,5.05,15a4.79,4.79,0,0,1-1.64-2.77A5.41,5.41,0,0,1,3.82,9,5,5,0,0,1,6.19,6.53a4.62,4.62,0,0,1,1.75-.41,5.16,5.16,0,0,1,1.72.26,6.23,6.23,0,0,1,1.47.7l.17.11.18.13a2.78,2.78,0,0,1,.33.27,4.11,4.11,0,0,1,.59.59,9,9,0,0,1,1.49,2.67,18.91,18.91,0,0,1,.76,2.76c.18.92.31,1.84.41,2.75s.18,1.83.23,2.75c.22,3.65.12,7.29,0,10.89Z" style="fill:url(#linear-gradient-3)"/></svg>