<?xml version="1.0" encoding="UTF-8"?>
<svg width="79px" height="79px" viewBox="0 0 79 79" version="1.1" xmlns="http://www.w3.org/2000/svg" xmlns:xlink="http://www.w3.org/1999/xlink">
    <title>F4008D93-EBF6-4D8E-B257-5EF3FC55717F</title>
    <defs>
        <path d="M0,0 L79,0 L79,79 L0,79 L0,0 Z" id="path-1"></path>
    </defs>
    <g id="Wind-Direction-Face" stroke="none" fill="none" xlink:href="#path-1" fill-rule="evenodd">
        <path d="M79,39.5 C79,61.3152857 61.3152857,79 39.5,79 C17.6847143,79 0,61.3152857 0,39.5 C0,17.6847143 17.6847143,0 39.5,0 C61.3152857,0 79,17.6847143 79,39.5" id="Highlight" fill="#FFFFFF"></path>
        <path d="M75,39.5 C75,59.1061429 59.1061429,75 39.5,75 C19.8938571,75 4,59.1061429 4,39.5 C4,19.8938571 19.8938571,4 39.5,4 C59.1061429,4 75,19.8938571 75,39.5" id="Outline" fill="#797979"></path>
        <path d="M39.5,73.5 C20.7219053,73.5 5.5,58.2780947 5.5,39.5 C5.5,20.7229156 20.7219053,5.5 39.5,5.5 C58.2780947,5.5 73.5,20.7229156 73.5,39.5 C73.5,58.2780947 58.2780947,73.5 39.5,73.5 Z" id="Face" fill="#FFFFFF"></path>
        <path d="M28.2759,10.645 L27.7579,9.394 L26.5139,9.91 L27.0319,11.16 C27.4429,10.979 27.8569,10.808 28.2759,10.645 Z M11.1597,27.0322 L9.9097,26.5142 L9.3937,27.7582 L10.6447,28.2762 C10.8077,27.8572 10.9787,27.4422 11.1597,27.0322 Z M10.645,50.7236 L9.394,51.2426 L9.91,52.4856 L11.16,51.9676 C10.979,51.5576 10.808,51.1426 10.645,50.7236 Z M27.0322,67.8398 L26.5142,69.0908 L27.7582,69.6058 L28.2762,68.3548 C27.8572,68.1918 27.4422,68.0208 27.0322,67.8398 Z M50.7236,68.3545 L51.2426,69.6055 L52.4856,69.0905 L51.9676,67.8395 C51.5576,68.0205 51.1426,68.1915 50.7236,68.3545 Z M67.8398,51.9678 L69.0908,52.4858 L69.6058,51.2418 L68.3548,50.7238 C68.1918,51.1428 68.0208,51.5578 67.8398,51.9678 Z M68.3545,28.2759 L69.6055,27.7579 L69.0905,26.5139 L67.8395,27.0319 C68.0205,27.4429 68.1915,27.8569 68.3545,28.2759 Z M51.9678,11.1597 L52.4858,9.9097 L51.2418,9.3937 L50.7238,10.6447 C51.1428,10.8077 51.5578,10.9787 51.9678,11.1597 Z M18.8135,17.3862 L17.1305,15.7032 L15.7035,17.1312 L17.3865,18.8132 C17.8465,18.3222 18.3215,17.8462 18.8135,17.3862 Z M17.3862,60.1865 L15.7032,61.8695 L17.1312,63.2965 L18.8132,61.6145 C18.3222,61.1545 17.8462,60.6775 17.3862,60.1865 Z M60.1865,61.6143 L61.8695,63.2973 L63.2965,61.8693 L61.6145,60.1863 C61.1545,60.6773 60.6775,61.1543 60.1865,61.6143 Z M61.6143,18.8135 L63.2973,17.1305 L61.8693,15.7035 L60.1863,17.3865 C60.6773,17.8465 61.1543,18.3215 61.6143,18.8135 Z M7.8018,35.1235 L9.0958,35.1235 C9.2278,35.1235 9.3398,35.1555 9.4288,35.2185 C9.5198,35.2815 9.5788,35.3655 9.6098,35.4725 L11.0178,40.4215 C11.0518,40.5435 11.0828,40.6765 11.1128,40.8185 C11.1408,40.9615 11.1688,41.1145 11.1948,41.2735 C11.2248,41.1145 11.2598,40.9615 11.2948,40.8185 C11.3318,40.6765 11.3698,40.5435 11.4118,40.4215 L13.0368,35.4725 C13.0668,35.3855 13.1278,35.3055 13.2168,35.2325 C13.3078,35.1605 13.4168,35.1235 13.5468,35.1235 L13.9978,35.1235 C14.1318,35.1235 14.2418,35.1555 14.3298,35.2185 C14.4188,35.2815 14.4788,35.3655 14.5128,35.4725 L16.1258,40.4215 C16.2098,40.6655 16.2818,40.9365 16.3438,41.2345 L16.4268,40.8055 C16.4558,40.6665 16.4848,40.5405 16.5148,40.4215 L17.9228,35.4725 C17.9488,35.3775 18.0088,35.2955 18.1008,35.2265 C18.1918,35.1575 18.3028,35.1235 18.4318,35.1235 L19.6398,35.1235 L17.0698,43.3965 L15.6798,43.3965 L13.8368,37.631 L13.8008,37.5095 C13.7758,37.4255 13.7518,37.3355 13.7298,37.2405 L13.693675,37.379125 L13.621675,37.631 L11.7618,43.3965 L10.3708,43.3965 L7.8018,35.1235 Z M41.7002,64.8076 C41.6582,64.8906 41.6082,64.9506 41.5542,64.9846 C41.4982,65.0196 41.4322,65.0366 41.3562,65.0366 C41.2802,65.0366 41.1962,65.0056 41.0982,64.9476 C41.0042,64.8876 40.8902,64.8226 40.7622,64.7496 C40.6332,64.6776 40.4802,64.6126 40.3072,64.5526 C40.1342,64.4936 39.9292,64.4636 39.6922,64.4636 C39.4792,64.4636 39.2922,64.4896 39.1352,64.5406 C38.9762,64.5916 38.8432,64.6636 38.7352,64.7546 C38.6242,64.8476 38.5432,64.9556 38.4902,65.0846 C38.4382,65.2126 38.4112,65.3536 38.4112,65.5056 C38.4112,65.6996 38.4642,65.8626 38.5752,65.9916 C38.6822,66.1206 38.8272,66.2316 39.0062,66.3236 C39.1842,66.4136 39.3892,66.4966 39.6182,66.5696 C39.8472,66.6416 40.0812,66.7196 40.3182,66.8006 C40.5562,66.8836 40.7912,66.9786 41.0192,67.0866 C41.2482,67.1966 41.4532,67.3326 41.6322,67.4986 C41.8112,67.6636 41.9562,67.8686 42.0632,68.1086 C42.1712,68.3476 42.2262,68.6396 42.2262,68.9846 C42.2262,69.3576 42.1632,69.7066 42.0342,70.0336 C41.9082,70.3596 41.7192,70.6436 41.4742,70.8866 C41.2272,71.1286 40.9282,71.3196 40.5722,71.4576 C40.2182,71.5976 39.8132,71.6666 39.3552,71.6666 C39.0922,71.6666 38.8322,71.6416 38.5772,71.5896 C38.3222,71.5386 38.0752,71.4646 37.8412,71.3696 C37.6072,71.2746 37.3862,71.1606 37.1832,71.0266 C36.9782,70.8936 36.7972,70.7446 36.6372,70.5796 L37.0842,69.8416 C37.1262,69.7886 37.1762,69.7446 37.2332,69.7066 C37.2942,69.6716 37.3602,69.6536 37.4332,69.6536 C37.5282,69.6536 37.6312,69.6936 37.7412,69.7706 L37.9893481,69.937637 C38.0352,69.9676 38.0832,69.9986 38.1332,70.0306 C38.2832,70.1266 38.4612,70.2136 38.6642,70.2906 C38.8692,70.3686 39.1132,70.4086 39.4002,70.4086 C39.8392,70.4086 40.1782,70.3036 40.4172,70.0966 C40.6592,69.8886 40.7802,69.5906 40.7802,69.2016 C40.7802,68.9846 40.7252,68.8066 40.6152,68.6686 C40.5072,68.5326 40.3622,68.4156 40.1832,68.3236 C40.0052,68.2296 39.8002,68.1506 39.5712,68.0846 C39.3422,68.0206 39.1112,67.9506 38.8742,67.8726 C38.6372,67.7966 38.4042,67.7056 38.1752,67.5986 C37.9462,67.4926 37.7432,67.3526 37.5652,67.1816 C37.3832,67.0096 37.2422,66.7956 37.1312,66.5376 C37.0232,66.2806 36.9682,65.9626 36.9682,65.5846 C36.9682,65.2846 37.0282,64.9906 37.1492,64.7036 C37.2702,64.4186 37.4442,64.1646 37.6752,63.9426 C37.9072,63.7216 38.1882,63.5446 38.5242,63.4116 C38.8612,63.2776 39.2452,63.2106 39.6762,63.2106 C40.1622,63.2106 40.6122,63.2866 41.0252,63.4396 C41.4372,63.5926 41.7872,63.8056 42.0762,64.0806 L41.7002,64.8076 Z M71.1279,35.1235 L71.1279,36.3475 L67.4619,36.3475 L67.4619,38.6415 L70.3519,38.6415 L70.3519,39.8265 L67.4619,39.8265 L67.4619,42.1655 L71.1279,42.1655 L71.1279,43.3965 L65.9109,43.3965 L65.9109,35.1235 L71.1279,35.1235 Z M36.9893,8.0127 C37.0333,8.0177 37.0753,8.0297 37.1103,8.0467 C37.1473,8.0637 37.1833,8.0887 37.2183,8.1207 C37.2523,8.1537 37.2893,8.1967 37.3313,8.2497 L41.6753,13.7827 C41.6583,13.6487 41.6483,13.5177 41.6423,13.3897 C41.6373,13.2617 41.6323,13.1437 41.6323,13.0317 L41.6323,8.0037 L42.9893,8.0037 L42.9893,16.2767 L42.1953,16.2767 C42.0713,16.2767 41.9713,16.2577 41.8893,16.2187 C41.8113,16.1817 41.7323,16.1117 41.6563,16.0127 L37.3313,10.5037 C37.3413,10.6257 37.3523,10.7467 37.3573,10.8667 L37.364337,11.0932926 L37.3653,16.2767 L36.0083,16.2767 L36.0083,8.0037 L36.8153,8.0037 C36.8843,8.0037 36.9423,8.0067 36.9893,8.0127 Z" id="Directions" fill="#434343"></path>
    </g>
</svg>