<?xml version="1.0" encoding="UTF-8"?>
<svg width="79px" height="79px" viewBox="0 0 79 79" version="1.1" xmlns="http://www.w3.org/2000/svg" xmlns:xlink="http://www.w3.org/1999/xlink">
    <title>BD36FCF5-24AE-49E6-87E5-13E6E58BEE82</title>
    <defs>
        <path d="M0,0 L79,0 L79,79 L0,79 L0,0 Z" id="path-1"></path>
    </defs>
    <g id="Wind-Direction-Arrow" stroke="none" fill="none" xlink:href="#path-1">
        <rect id="Rectangle" fill-rule="nonzero" x="0" y="0" width="79" height="79"></rect>
        <path d="M39.4957914,5.62144966 L41.2941627,9.31373145 L48.5411627,24.1927314 L49.9418411,27.0685 L44.1892482,27.0685 L44.1902006,39.9162645 C44.1920617,42.2570449 42.1927205,44.052874 39.7298926,44.1872128 L39.4982,44.1928 C36.975351,44.1928 34.8062,42.3603826 34.8062,39.9188476 L34.8052482,27.0689392 L32.2515392,27.0695 L29.0524975,27.0702024 L30.452919,24.1939744 L37.697919,9.31397438 L39.4957914,5.62144966 Z" id="Arrow-Highlight" fill="#FFFFFF" fill-rule="nonzero"></path>
        <path d="M39.4961,10.1895 L46.7431,25.0685 L42.1891,25.0685 L42.1902012,39.9178547 C42.19116,41.12377 41.0797488,42.1109175 39.6752319,42.1879598 L39.4982,42.1928 C38.0122,42.1928 36.8062,41.1740165 36.8062,39.9186994 L36.8051,25.0685 L32.2511,25.0695 L39.4961,10.1895 Z M39.4999,38.827 C39.1289,38.827 38.8269,39.128 38.8269,39.5 C38.8269,39.872 39.1289,40.173 39.4999,40.173 C39.8719,40.173 40.1729,39.872 40.1729,39.5 C40.1729,39.128 39.8719,38.827 39.4999,38.827 Z" id="Arrow" class="windArrowBody" fill="#797979" fill-rule="evenodd"></path>
    </g>
</svg>